<svg 
          width="2.601408004760742" 
          height="4.729805946350098" fill="none" 
          xmlns="http://www.w3.org/2000/svg">
          <path d="M 2.601408004760742 2.3649023757321657 C 2.601408004760742 2.6754658074514186 2.567764531882639 2.9829880495236933 2.5023979691989706 3.2699112451236347 C 2.437031406515302 3.556834440723576 2.341220475654476 3.8175399009150266 2.220438816427394 4.0371414214262 C 2.0996571572003115 4.2567429419373735 1.9562738574553458 4.430939363420595 1.7984650155827064 4.549786846526253 C 1.6406561737100671 4.66863432963191 1.4715150591310031 4.729805946350098 1.300704002380371 4.729805946350098 C 0.9557354997412214 4.729805946350093 0.6248987393335381 4.480646685991356 0.3809691883333486 4.0371414214262 C 0.13703963733315902 3.5936361568610438 0 2.992113522813819 0 2.3649023757321657 C 0 1.7376912286505122 0.13703963733315902 1.1361685946032876 0.3809691883333486 0.6926633300381313 C 0.6248987393335381 0.24915806547297514 0.9557354997412214 4.451296354070923e-15 1.300704002380371 0 C 1.6456725050195207 0 1.9765092654272043 0.24915806547297514 2.220438816427394 0.6926633300381313 C 2.4643683674275834 1.1361685946032876 2.601408004760742 1.7376912286505122 2.601408004760742 2.3649023757321657 Z" fill="rgb(131.62905603647232,111.62964999675751,143.78060638904572)"/>
        </svg>