<svg 
          width="2.4353528022766113" 
          height="4.034022331237793" fill="none" 
          xmlns="http://www.w3.org/2000/svg">
          <path d="M 2.4353528022766113 2.0170111656188965 C 2.4353528022766113 2.281888778092098 2.4038587296577965 2.5441729680974046 2.342664689751777 2.788887973735088 C 2.2814706498457578 3.0336029793727715 2.1917794421350614 3.255957191758077 2.078707608148461 3.4432539555693484 C 1.9656357741618604 3.63055071938062 1.831398620819785 3.779121771487616 1.6836631514255689 3.8804860516651214 C 1.5359276820313528 3.981850331842627 1.3775841233402137 4.034022331237793 1.2176764011383057 4.034022331237793 C 1.0577686654957956 4.034022355763496 0.8994251336858605 3.9818503137639496 0.7516896508510424 3.8804860516651214 C 0.6039541680162244 3.779121789566293 0.4697170415553531 3.63055071938062 0.3566451941281504 3.4432539555693484 C 0.24357334670094768 3.255957191758077 0.15388215915115472 3.033602997451449 0.0926881125248342 2.788887973735088 C 0.03149406589851368 2.544172950018727 0 2.2818887961707754 0 2.0170111656188965 C 0 1.7521335350670175 0.03149406589851368 1.4898493812190658 0.0926881125248342 1.245134357502705 C 0.15388215915115472 1.000419333786344 0.24357334670094768 0.7780662965150862 0.3566451941281504 0.5907695327038147 C 0.4697170415553531 0.40347276889254324 0.6039541680162244 0.25490054167149956 0.7516896508510424 0.15353627957267157 C 0.8994251336858605 0.05217201747384358 1.0577686654957956 -2.4525696586009613e-8 1.2176764011383057 8.620585280170155e-15 C 1.3775841233402137 6.465438960127616e-15 1.5359276820313528 0.052171999395165924 1.6836631514255689 0.15353627957267157 C 1.831398620819785 0.2549005597501772 1.9656357741618604 0.40347276889254324 2.078707608148461 0.5907695327038147 C 2.1917794421350614 0.7780662965150862 2.2814706498457578 1.0004193518650217 2.342664689751777 1.245134357502705 C 2.4038587296577965 1.4898493631403882 2.435352802276624 1.7521335531456952 2.4353528022766113 2.0170111656188965 Z" fill="rgb(131.62905603647232,111.62964999675751,143.78060638904572)"/>
        </svg>