<svg 
          width="2.612346649169922" 
          height="2.818608045578003" fill="none" 
          xmlns="http://www.w3.org/2000/svg">
          <path d="M 2.612346649169922 1.4093040227890015 C 2.612346649169922 1.5943764141343977 2.5785602341242417 1.7776369252840294 2.5129189675986146 1.9486215240135936 C 2.4472777010729874 2.119606122743158 2.35106376053567 2.2749667504913713 2.229774510971243 2.4058326889761132 C 2.108485261406816 2.536698627460855 1.9644960674247727 2.6405061574168704 1.8060240267008498 2.7113302987298042 C 1.647551985976927 2.782154440042738 1.4777022249009861 2.8186080455779994 1.306173324584961 2.818608045578003 C 0.9597551129530442 2.818608004950776 0.6275267889383419 2.6701283967166614 0.3825721381986787 2.4058326889761132 C 0.1376174874590155 2.141536981235565 0 1.7830745581084488 1.6140708451984965e-14 1.4093040227890015 C 0 1.035533487469554 0.1376174874590155 0.6770710643424378 0.3825721381986787 0.41277535660188963 C 0.6275267889383419 0.14847964886134146 0.9597551129530442 4.062722678808226e-8 1.306173324584961 0 C 1.4777022249009861 3.544674213922234e-15 1.647551985976927 0.03645360553526504 1.8060240267008498 0.10727774684819885 C 1.9644960674247727 0.17810188816113265 2.108485261406816 0.28190941811714776 2.229774510971243 0.41277535660188963 C 2.35106376053567 0.5436412950866315 2.4472777010729874 0.6990019228348451 2.5129189675986146 0.8699865215644094 C 2.5785602341242417 1.0409711202939735 2.612346649169906 1.2242316314436053 2.612346649169922 1.4093040227890015 Z" fill="rgb(131.62905603647232,111.62964999675751,143.78060638904572)"/>
        </svg>