<svg width="34" height="34" viewBox="0 0 34 34" fill="none" xmlns="http://www.w3.org/2000/svg">
<g clip-path="url(#clip0_326_557)">
<path d="M18.4922 14.954V8.36202H15.1962V14.954H8.60427V18.25H15.1962V24.8419H18.4922V18.25H25.0842V14.954H18.4922ZM16.8442 33.0819C12.4735 33.0819 8.28175 31.3456 5.19117 28.255C2.10059 25.1644 0.364319 20.9727 0.364319 16.602C0.364319 12.2312 2.10059 8.0395 5.19117 4.94892C8.28175 1.85834 12.4735 0.12207 16.8442 0.12207C21.215 0.12207 25.4067 1.85834 28.4973 4.94892C31.5878 8.0395 33.3241 12.2312 33.3241 16.602C33.3241 20.9727 31.5878 25.1644 28.4973 28.255C25.4067 31.3456 21.215 33.0819 16.8442 33.0819Z" fill="#4A4947"/>
</g>
<defs>
<clipPath id="clip0_326_557">
<rect width="32.9598" height="32.9598" fill="white" transform="translate(0.364319 0.12207)"/>
</clipPath>
</defs>
</svg>
