<svg width="31" height="31" viewBox="0 0 31 31" fill="none" xmlns="http://www.w3.org/2000/svg">
<path d="M22.7857 25.3179V21.6393H19.1071V19.1869H22.7857V15.5084H25.238V19.1869H28.9166V21.6393H25.238V25.3179H22.7857ZM4.39281 26.5441C3.71841 26.5441 3.14128 26.3042 2.66143 25.8243C2.18158 25.3445 1.94125 24.7669 1.94043 24.0917V6.92504C1.94043 6.25063 2.18076 5.67351 2.66143 5.19366C3.1421 4.71381 3.71922 4.47347 4.39281 4.47266H21.5595C22.2339 4.47266 22.8114 4.71299 23.2921 5.19366C23.7728 5.67432 24.0127 6.25145 24.0119 6.92504V13.056H21.5595V10.6036H4.39281V24.0917H20.3333V26.5441H4.39281Z" fill="#4A4947"/>
</svg>
