<svg width="30" height="30" viewBox="0 0 30 30" fill="none" xmlns="http://www.w3.org/2000/svg">
<path d="M25.552 28.5701L15.3746 18.3927H1.67195C1.67195 15.9199 2.62756 14.0757 4.53878 12.8602C6.45001 11.6446 8.55987 11.0364 10.8684 11.0356C10.9706 11.0356 11.083 11.0409 11.2056 11.0515C11.3282 11.0622 11.4406 11.0671 11.5428 11.0663V14.5302L1.27344 4.29155L3.02076 2.54423L27.2993 26.8228L25.552 28.5701ZM1.67195 23.2975V20.8451H20.0648V23.2975H1.67195ZM1.67195 28.2023V25.7499H20.0648V28.2023H1.67195ZM26.9621 22.991L14.4856 10.5451L13.9339 6.13084H20.0648V1.22607H22.5172V6.13084H28.6481L26.9621 22.991Z" fill="#4A4947"/>
</svg>
