<svg width="30" height="31" viewBox="0 0 30 31" fill="none" xmlns="http://www.w3.org/2000/svg">
<g clip-path="url(#clip0_321_185)">
<path d="M27.3265 18.713V21.8661C27.3265 23.7163 26.6259 25.2819 25.2245 26.5629V29.7488C25.2245 29.902 25.1752 30.0279 25.0767 30.1265C24.9782 30.225 24.8523 30.2743 24.699 30.2743H23.648C23.4947 30.2743 23.3688 30.225 23.2702 30.1265C23.1717 30.0279 23.1224 29.902 23.1224 29.7488V27.8109C22.4327 28.0518 21.732 28.1722 21.0204 28.1722H8.40816C7.69653 28.1722 6.99585 28.0518 6.30612 27.8109V29.6174C6.30612 29.8035 6.25412 29.9595 6.15011 30.0854C6.0461 30.2113 5.92294 30.2743 5.78061 30.2743H4.72959C4.58727 30.2743 4.4641 30.2113 4.36009 30.0854C4.25608 29.9595 4.20408 29.8035 4.20408 29.6174V26.5629C2.80272 25.2819 2.10204 23.7163 2.10204 21.8661V18.713H27.3265ZM11.5612 11.8814C11.5612 12.0347 11.512 12.1606 11.4134 12.2591C11.3149 12.3577 11.189 12.4069 11.0357 12.4069C10.8824 12.4069 10.7565 12.3577 10.658 12.2591C10.5595 12.1606 10.5102 12.0347 10.5102 11.8814C10.5102 11.7281 10.5595 11.6022 10.658 11.5037C10.7565 11.4052 10.8824 11.3559 11.0357 11.3559C11.189 11.3559 11.3149 11.4052 11.4134 11.5037C11.512 11.6022 11.5612 11.7281 11.5612 11.8814ZM12.6122 10.8304C12.6122 10.9837 12.563 11.1096 12.4644 11.2081C12.3659 11.3066 12.24 11.3559 12.0867 11.3559C11.9335 11.3559 11.8076 11.3066 11.709 11.2081C11.6105 11.1096 11.5612 10.9837 11.5612 10.8304C11.5612 10.6771 11.6105 10.5512 11.709 10.4527C11.8076 10.3542 11.9335 10.3049 12.0867 10.3049C12.24 10.3049 12.3659 10.3542 12.4644 10.4527C12.563 10.5512 12.6122 10.6771 12.6122 10.8304ZM11.5612 9.77938C11.5612 9.93265 11.512 10.0586 11.4134 10.1571C11.3149 10.2556 11.189 10.3049 11.0357 10.3049C10.8824 10.3049 10.7565 10.2556 10.658 10.1571C10.5595 10.0586 10.5102 9.93265 10.5102 9.77938C10.5102 9.6261 10.5595 9.5002 10.658 9.40167C10.7565 9.30313 10.8824 9.25387 11.0357 9.25387C11.189 9.25387 11.3149 9.30313 11.4134 9.40167C11.512 9.5002 11.5612 9.6261 11.5612 9.77938ZM13.6633 9.77938C13.6633 9.93265 13.614 10.0586 13.5155 10.1571C13.4169 10.2556 13.291 10.3049 13.1378 10.3049C12.9845 10.3049 12.8586 10.2556 12.76 10.1571C12.6615 10.0586 12.6122 9.93265 12.6122 9.77938C12.6122 9.6261 12.6615 9.5002 12.76 9.40167C12.8586 9.30313 12.9845 9.25387 13.1378 9.25387C13.291 9.25387 13.4169 9.30313 13.5155 9.40167C13.614 9.5002 13.6633 9.6261 13.6633 9.77938ZM12.6122 8.72836C12.6122 8.88163 12.563 9.00753 12.4644 9.10607C12.3659 9.2046 12.24 9.25387 12.0867 9.25387C11.9335 9.25387 11.8076 9.2046 11.709 9.10607C11.6105 9.00753 11.5612 8.88163 11.5612 8.72836C11.5612 8.57508 11.6105 8.44918 11.709 8.35065C11.8076 8.25211 11.9335 8.20285 12.0867 8.20285C12.24 8.20285 12.3659 8.25211 12.4644 8.35065C12.563 8.44918 12.6122 8.57508 12.6122 8.72836ZM11.5612 7.67734C11.5612 7.83061 11.512 7.95651 11.4134 8.05505C11.3149 8.15358 11.189 8.20285 11.0357 8.20285C10.8824 8.20285 10.7565 8.15358 10.658 8.05505C10.5595 7.95651 10.5102 7.83061 10.5102 7.67734C10.5102 7.52406 10.5595 7.39816 10.658 7.29963C10.7565 7.20109 10.8824 7.15183 11.0357 7.15183C11.189 7.15183 11.3149 7.20109 11.4134 7.29963C11.512 7.39816 11.5612 7.52406 11.5612 7.67734ZM29.4286 16.0855V17.1365C29.4286 17.2898 29.3793 17.4157 29.2808 17.5142C29.1822 17.6128 29.0563 17.662 28.9031 17.662H0.52551C0.372236 17.662 0.246333 17.6128 0.1478 17.5142C0.0492666 17.4157 0 17.2898 0 17.1365V16.0855C0 15.9322 0.0492666 15.8063 0.1478 15.7078C0.246333 15.6093 0.372236 15.56 0.52551 15.56H2.10204V5.04978C2.10204 3.88928 2.5126 2.89848 3.33371 2.07737C4.15481 1.25626 5.14562 0.845703 6.30612 0.845703C7.48852 0.845703 8.49575 1.27268 9.32781 2.12663C9.83142 1.91862 10.3679 1.85293 10.9372 1.92957C11.5065 2.0062 12.0156 2.21969 12.4644 2.57003L12.8257 2.20875C12.9462 2.08832 13.0666 2.08832 13.187 2.20875L13.8768 2.89848C13.9972 3.01891 13.9972 3.13934 13.8768 3.25977L8.72018 8.41633C8.59976 8.53676 8.47933 8.53676 8.3589 8.41633L7.66916 7.7266C7.54874 7.60617 7.54874 7.48574 7.66916 7.36531L8.03045 7.00403C7.63632 6.50041 7.41462 5.93111 7.36535 5.29612C7.31609 4.66113 7.44473 4.06993 7.75128 3.52252C7.34619 3.13934 6.86448 2.94774 6.30612 2.94774C5.72587 2.94774 5.23047 3.15302 4.81991 3.56358C4.40936 3.97413 4.20408 4.46953 4.20408 5.04978V15.56H28.9031C29.0563 15.56 29.1822 15.6093 29.2808 15.7078C29.3793 15.8063 29.4286 15.9322 29.4286 16.0855ZM14.7143 8.72836C14.7143 8.88163 14.665 9.00753 14.5665 9.10607C14.468 9.2046 14.342 9.25387 14.1888 9.25387C14.0355 9.25387 13.9096 9.2046 13.8111 9.10607C13.7125 9.00753 13.6633 8.88163 13.6633 8.72836C13.6633 8.57508 13.7125 8.44918 13.8111 8.35065C13.9096 8.25211 14.0355 8.20285 14.1888 8.20285C14.342 8.20285 14.468 8.25211 14.5665 8.35065C14.665 8.44918 14.7143 8.57508 14.7143 8.72836ZM13.6633 7.67734C13.6633 7.83061 13.614 7.95651 13.5155 8.05505C13.4169 8.15358 13.291 8.20285 13.1378 8.20285C12.9845 8.20285 12.8586 8.15358 12.76 8.05505C12.6615 7.95651 12.6122 7.83061 12.6122 7.67734C12.6122 7.52406 12.6615 7.39816 12.76 7.29963C12.8586 7.20109 12.9845 7.15183 13.1378 7.15183C13.291 7.15183 13.4169 7.20109 13.5155 7.29963C13.614 7.39816 13.6633 7.52406 13.6633 7.67734ZM12.6122 6.62632C12.6122 6.77959 12.563 6.90549 12.4644 7.00403C12.3659 7.10256 12.24 7.15183 12.0867 7.15183C11.9335 7.15183 11.8076 7.10256 11.709 7.00403C11.6105 6.90549 11.5612 6.77959 11.5612 6.62632C11.5612 6.47304 11.6105 6.34714 11.709 6.2486C11.8076 6.15007 11.9335 6.10081 12.0867 6.10081C12.24 6.10081 12.3659 6.15007 12.4644 6.2486C12.563 6.34714 12.6122 6.47304 12.6122 6.62632ZM15.7653 7.67734C15.7653 7.83061 15.716 7.95651 15.6175 8.05505C15.519 8.15358 15.3931 8.20285 15.2398 8.20285C15.0865 8.20285 14.9606 8.15358 14.8621 8.05505C14.7636 7.95651 14.7143 7.83061 14.7143 7.67734C14.7143 7.52406 14.7636 7.39816 14.8621 7.29963C14.9606 7.20109 15.0865 7.15183 15.2398 7.15183C15.3931 7.15183 15.519 7.20109 15.6175 7.29963C15.716 7.39816 15.7653 7.52406 15.7653 7.67734ZM14.7143 6.62632C14.7143 6.77959 14.665 6.90549 14.5665 7.00403C14.468 7.10256 14.342 7.15183 14.1888 7.15183C14.0355 7.15183 13.9096 7.10256 13.8111 7.00403C13.7125 6.90549 13.6633 6.77959 13.6633 6.62632C13.6633 6.47304 13.7125 6.34714 13.8111 6.2486C13.9096 6.15007 14.0355 6.10081 14.1888 6.10081C14.342 6.10081 14.468 6.15007 14.5665 6.2486C14.665 6.34714 14.7143 6.47304 14.7143 6.62632ZM13.6633 5.57529C13.6633 5.72857 13.614 5.85447 13.5155 5.95301C13.4169 6.05154 13.291 6.10081 13.1378 6.10081C12.9845 6.10081 12.8586 6.05154 12.76 5.95301C12.6615 5.85447 12.6122 5.72857 12.6122 5.57529C12.6122 5.42202 12.6615 5.29612 12.76 5.19758C12.8586 5.09905 12.9845 5.04978 13.1378 5.04978C13.291 5.04978 13.4169 5.09905 13.5155 5.19758C13.614 5.29612 13.6633 5.42202 13.6633 5.57529ZM16.8163 6.62632C16.8163 6.77959 16.7671 6.90549 16.6685 7.00403C16.57 7.10256 16.4441 7.15183 16.2908 7.15183C16.1375 7.15183 16.0116 7.10256 15.9131 7.00403C15.8146 6.90549 15.7653 6.77959 15.7653 6.62632C15.7653 6.47304 15.8146 6.34714 15.9131 6.2486C16.0116 6.15007 16.1375 6.10081 16.2908 6.10081C16.4441 6.10081 16.57 6.15007 16.6685 6.2486C16.7671 6.34714 16.8163 6.47304 16.8163 6.62632ZM15.7653 5.57529C15.7653 5.72857 15.716 5.85447 15.6175 5.95301C15.519 6.05154 15.3931 6.10081 15.2398 6.10081C15.0865 6.10081 14.9606 6.05154 14.8621 5.95301C14.7636 5.85447 14.7143 5.72857 14.7143 5.57529C14.7143 5.42202 14.7636 5.29612 14.8621 5.19758C14.9606 5.09905 15.0865 5.04978 15.2398 5.04978C15.3931 5.04978 15.519 5.09905 15.6175 5.19758C15.716 5.29612 15.7653 5.42202 15.7653 5.57529ZM17.8673 5.57529C17.8673 5.72857 17.8181 5.85447 17.7195 5.95301C17.621 6.05154 17.4951 6.10081 17.3418 6.10081C17.1886 6.10081 17.0627 6.05154 16.9641 5.95301C16.8656 5.85447 16.8163 5.72857 16.8163 5.57529C16.8163 5.42202 16.8656 5.29612 16.9641 5.19758C17.0627 5.09905 17.1886 5.04978 17.3418 5.04978C17.4951 5.04978 17.621 5.09905 17.7195 5.19758C17.8181 5.29612 17.8673 5.42202 17.8673 5.57529Z" fill="#4A4947"/>
</g>
<defs>
<clipPath id="clip0_321_185">
<rect width="29.4286" height="29.4286" fill="white" transform="translate(0 0.845703)"/>
</clipPath>
</defs>
</svg>
