<svg width="22" height="19" viewBox="0 0 22 19" fill="none" xmlns="http://www.w3.org/2000/svg">
<path d="M0.786865 16.6116C0.786865 17.5359 1.79839 18.2857 3.04515 18.2857H19.6059C20.8526 18.2857 21.8641 17.5359 21.8641 16.6116V7.125H0.786865V16.6116ZM15.8421 9.77567C15.8421 9.54548 16.0961 9.35715 16.4066 9.35715H18.2885C18.5991 9.35715 18.8531 9.54548 18.8531 9.77567V11.1708C18.8531 11.401 18.5991 11.5893 18.2885 11.5893H16.4066C16.0961 11.5893 15.8421 11.401 15.8421 11.1708V9.77567ZM15.8421 14.24C15.8421 14.0098 16.0961 13.8214 16.4066 13.8214H18.2885C18.5991 13.8214 18.8531 14.0098 18.8531 14.24V15.635C18.8531 15.8652 18.5991 16.0536 18.2885 16.0536H16.4066C16.0961 16.0536 15.8421 15.8652 15.8421 15.635V14.24ZM9.81999 9.77567C9.81999 9.54548 10.074 9.35715 10.3846 9.35715H12.2665C12.577 9.35715 12.831 9.54548 12.831 9.77567V11.1708C12.831 11.401 12.577 11.5893 12.2665 11.5893H10.3846C10.074 11.5893 9.81999 11.401 9.81999 11.1708V9.77567ZM9.81999 14.24C9.81999 14.0098 10.074 13.8214 10.3846 13.8214H12.2665C12.577 13.8214 12.831 14.0098 12.831 14.24V15.635C12.831 15.8652 12.577 16.0536 12.2665 16.0536H10.3846C10.074 16.0536 9.81999 15.8652 9.81999 15.635V14.24ZM3.79791 9.77567C3.79791 9.54548 4.05196 9.35715 4.36248 9.35715H6.24438C6.55489 9.35715 6.80895 9.54548 6.80895 9.77567V11.1708C6.80895 11.401 6.55489 11.5893 6.24438 11.5893H4.36248C4.05196 11.5893 3.79791 11.401 3.79791 11.1708V9.77567ZM3.79791 14.24C3.79791 14.0098 4.05196 13.8214 4.36248 13.8214H6.24438C6.55489 13.8214 6.80895 14.0098 6.80895 14.24V15.635C6.80895 15.8652 6.55489 16.0536 6.24438 16.0536H4.36248C4.05196 16.0536 3.79791 15.8652 3.79791 15.635V14.24ZM19.6059 2.66072H17.3476V0.986609C17.3476 0.67969 17.0088 0.428574 16.5948 0.428574H15.0893C14.6753 0.428574 14.3365 0.67969 14.3365 0.986609V2.66072H8.31447V0.986609C8.31447 0.67969 7.97572 0.428574 7.56171 0.428574H6.05619C5.64217 0.428574 5.30343 0.67969 5.30343 0.986609V2.66072H3.04515C1.79839 2.66072 0.786865 3.41058 0.786865 4.33482V6.00893H21.8641V4.33482C21.8641 3.41058 20.8526 2.66072 19.6059 2.66072Z" fill="#4A4947"/>
</svg>
