<svg width="50" height="50" viewBox="0 0 50 50" fill="none" xmlns="http://www.w3.org/2000/svg">
<path d="M37.052 12.4997C37.8666 12.5172 38.6765 12.3685 39.4342 12.0623C40.1918 11.7562 40.882 11.2987 41.4642 10.7167C42.0464 10.1346 42.509 9.4398 42.8248 8.67289C43.1406 7.90599 43.3032 7.08244 43.3032 6.25052C43.3032 5.4186 43.1406 4.59505 42.8248 3.82815C42.509 3.06124 42.0464 2.36641 41.4642 1.78439C40.882 1.20237 40.1918 0.744865 39.4342 0.438695C38.6765 0.132525 37.8666 -0.0161483 37.052 0.0013891C35.451 0.0358544 33.9269 0.709383 32.8066 1.87757C31.6863 3.04576 31.0589 4.6156 31.0589 6.25052C31.0589 7.88544 31.6863 9.45529 32.8066 10.6235C33.9269 11.7917 35.451 12.4652 37.052 12.4997ZM20.7221 20.0989C21.0551 19.7569 21.3189 19.3513 21.4984 18.9052C21.6778 18.4591 21.7695 17.9812 21.7681 17.499C21.7667 17.0167 21.6723 16.5395 21.4903 16.0945C21.3082 15.6495 21.0421 15.2454 20.7071 14.9054C20.3721 14.5654 19.9748 14.2961 19.5379 14.1129C19.1009 13.9296 18.6329 13.836 18.1606 13.8374C17.6882 13.8389 17.2208 13.9353 16.7849 14.1211C16.349 14.307 15.9533 14.5787 15.6203 14.9207L12.9537 17.6598H9.43413C8.48029 17.6598 7.56553 18.0467 6.89106 18.7353C6.2166 19.4239 5.83769 20.3578 5.83769 21.3316C5.83769 22.3055 6.2166 23.2394 6.89106 23.928C7.56553 24.6166 8.48029 25.0035 9.43413 25.0035H13.1891C14.1017 25.0036 15.005 24.8163 15.8453 24.4526C16.6856 24.089 17.4455 23.5564 18.08 22.8866L20.7221 20.0989ZM20.9642 32.211C20.9642 32.211 17.8651 31.6207 16.5971 32.211C15.6529 32.6499 11.9986 33.9889 10.196 34.6446V46.9511C11.2395 46.89 13.3156 46.7775 14.2026 46.8136C16.8461 46.9234 18.8201 47.5637 20.8159 48.211C22.6784 48.8152 24.56 49.4263 27.0198 49.6166C27.6401 49.6639 28.2415 49.7264 28.8251 49.7861C30.9339 50.0028 32.8005 50.1945 34.346 49.6166C36.3187 48.8791 47.5862 43.2744 48.9943 41.7993C50.4024 40.3242 49.699 36.3405 45.3319 37.0781C43.1782 37.442 40.679 38.4893 38.4152 39.438C36.0887 40.4117 34.0086 41.284 32.7964 41.209C30.4019 41.0618 24.0621 39.8811 24.0621 39.8811L31.3407 39.9714C31.3407 39.9714 32.3692 40.0269 33.7814 38.9963C35.1963 37.9657 36.4588 35.014 34.346 35.014C32.2331 35.014 29.9788 34.2751 29.9788 34.2751L20.9642 32.211ZM0.672607 33.3375C0.672607 32.9691 0.815944 32.6158 1.07108 32.3553C1.32622 32.0948 1.67227 31.9485 2.03309 31.9485H6.11455C6.47537 31.9485 6.82141 32.0948 7.07655 32.3553C7.33169 32.6158 7.47503 32.9691 7.47503 33.3375V48.611C7.47503 48.9794 7.33169 49.3327 7.07655 49.5932C6.82141 49.8537 6.47537 50 6.11455 50H2.03309C1.67227 50 1.32622 49.8537 1.07108 49.5932C0.815944 49.3327 0.672607 48.9794 0.672607 48.611V33.3375ZM39.626 17.582C40.5883 17.5813 41.5115 17.9709 42.1925 18.6651C42.8735 19.3593 43.2564 20.3012 43.2571 21.2837C43.2579 22.2662 42.8763 23.2087 42.1963 23.904C41.5164 24.5992 40.5938 24.9902 39.6315 24.991L35.3636 24.9965C35.3455 24.9965 35.3273 24.9947 35.3092 24.991C35.2929 24.9882 35.2756 24.9868 35.2575 24.9868C34.8271 24.9975 34.3992 24.9174 34.0006 24.7515C33.6019 24.5857 33.2411 24.3376 32.9406 24.0228L31.9597 23.02C31.3705 23.6441 30.6643 24.1407 29.8832 24.4803C29.102 24.8198 28.2619 24.9954 27.4129 24.9965H23.2186L22.5819 12.0079H29.3271C30.051 12.0079 30.7677 12.1552 31.4351 12.4415C32.1025 12.7277 32.7073 13.1469 33.214 13.6748L36.9635 17.582H39.626Z" fill="#4A4947"/>
</svg>
