<svg width="30" height="31" viewBox="0 0 30 31" fill="none" xmlns="http://www.w3.org/2000/svg">
<path d="M20.3127 9.88101C20.6799 9.88875 21.0448 9.82313 21.3863 9.68799C21.7277 9.55285 22.0387 9.35091 22.3011 9.09401C22.5635 8.83711 22.7719 8.53042 22.9142 8.19191C23.0565 7.85341 23.1298 7.4899 23.1298 7.1227C23.1298 6.7555 23.0565 6.39199 22.9142 6.05348C22.7719 5.71498 22.5635 5.40829 22.3011 5.15139C22.0387 4.89449 21.7277 4.69255 21.3863 4.55741C21.0448 4.42227 20.6799 4.35664 20.3127 4.36438C19.5913 4.3796 18.9045 4.67689 18.3996 5.19251C17.8947 5.70814 17.612 6.40106 17.612 7.1227C17.612 7.84434 17.8947 8.53726 18.3996 9.05288C18.9045 9.56851 19.5913 9.8658 20.3127 9.88101ZM12.9538 13.2353C13.1038 13.0843 13.2227 12.9053 13.3036 12.7084C13.3845 12.5114 13.4258 12.3005 13.4252 12.0877C13.4245 11.8748 13.382 11.6642 13.2999 11.4677C13.2179 11.2713 13.098 11.093 12.947 10.9429C12.7961 10.7928 12.617 10.6739 12.4201 10.5931C12.2232 10.5122 12.0123 10.4709 11.7994 10.4715C11.5866 10.4721 11.3759 10.5147 11.1795 10.5967C10.9831 10.6788 10.8047 10.7987 10.6547 10.9496L9.45299 12.1587H7.86691C7.43707 12.1587 7.02484 12.3294 6.72089 12.6334C6.41695 12.9373 6.2462 13.3495 6.2462 13.7794C6.2462 14.2092 6.41695 14.6215 6.72089 14.9254C7.02484 15.2293 7.43707 15.4001 7.86691 15.4001H9.55905C9.97033 15.4002 10.3774 15.3175 10.7561 15.157C11.1347 14.9964 11.4772 14.7614 11.7631 14.4657L12.9538 13.2353ZM13.0629 18.5814C13.0629 18.5814 11.6663 18.3209 11.0949 18.5814C10.6694 18.7752 9.0226 19.3662 8.21025 19.6556V25.0876C8.68049 25.0606 9.61607 25.011 10.0158 25.0269C11.2071 25.0754 12.0967 25.358 12.9961 25.6437C13.8354 25.9104 14.6833 26.1802 15.7918 26.2641C16.0714 26.285 16.3423 26.3126 16.6054 26.3389C17.5557 26.4346 18.3968 26.5192 19.0933 26.2641C19.9823 25.9386 25.0599 23.4648 25.6945 22.8136C26.3291 22.1625 26.0121 20.4042 24.044 20.7297C23.0735 20.8904 21.9473 21.3526 20.9271 21.7714C19.8787 22.2012 18.9413 22.5862 18.395 22.5531C17.3159 22.4881 14.4589 21.967 14.4589 21.967L17.739 22.0068C17.739 22.0068 18.2025 22.0313 18.8389 21.5764C19.4765 21.1215 20.0454 19.8187 19.0933 19.8187C18.1412 19.8187 17.1253 19.4925 17.1253 19.4925L13.0629 18.5814ZM3.91858 19.0787C3.91858 18.9161 3.98317 18.7601 4.09815 18.6451C4.21313 18.5302 4.36907 18.4656 4.53167 18.4656H6.37096C6.53356 18.4656 6.68951 18.5302 6.80448 18.6451C6.91946 18.7601 6.98406 18.9161 6.98406 19.0787V25.8203C6.98406 25.9829 6.91946 26.1388 6.80448 26.2538C6.68951 26.3688 6.53356 26.4334 6.37096 26.4334H4.53167C4.36907 26.4334 4.21313 26.3688 4.09815 26.2538C3.98317 26.1388 3.91858 25.9829 3.91858 25.8203V19.0787ZM21.4727 12.1243C21.9064 12.124 22.3224 12.296 22.6293 12.6024C22.9362 12.9088 23.1087 13.3246 23.1091 13.7582C23.1094 14.1919 22.9374 14.6079 22.631 14.9148C22.3246 15.2217 21.9088 15.3943 21.4752 15.3946L19.5519 15.397C19.5437 15.397 19.5355 15.3962 19.5274 15.3946C19.52 15.3934 19.5122 15.3927 19.5041 15.3927C19.3101 15.3975 19.1173 15.3621 18.9376 15.2889C18.758 15.2157 18.5954 15.1062 18.46 14.9673L18.0179 14.5246C17.7524 14.8001 17.4342 15.0193 17.0822 15.1692C16.7301 15.319 16.3516 15.3965 15.969 15.397H14.0788L13.7919 9.66398H16.8316C17.1578 9.66394 17.4808 9.729 17.7815 9.85532C18.0823 9.98165 18.3548 10.1667 18.5832 10.3997L20.2729 12.1243H21.4727Z" fill="#4A4947"/>
</svg>
