<svg width="30" height="31" viewBox="0 0 30 31" fill="none" xmlns="http://www.w3.org/2000/svg">
<path d="M5.02165 12.2407C4.79662 14.4084 4.57217 16.5863 4.35945 18.6511L7.55302 15.8193L11.3649 1.93848C6.94531 2.28512 5.49986 9.41276 5.02165 12.2407ZM4.35945 18.6511L4.35933 18.6512L4.35945 18.6513V18.6511V18.6511ZM3.03821 2.20845L2.04821 2.50906C2.57666 4.25046 3.49619 5.89357 5.077 7.05244C5.18782 6.71128 5.31074 6.37417 5.44554 6.04175C4.21322 5.05716 3.49671 3.71937 3.03826 2.20856L3.03821 2.20845ZM2.62856 6.56365L1.8356 7.22815C2.69432 8.2912 3.2684 9.24544 4.37899 9.87804C4.44621 9.51899 4.51989 9.16117 4.59999 8.80476C3.76714 8.21441 3.18707 7.2366 2.62856 6.56365ZM19.3093 6.80436L15.3803 10.2973C13.885 9.53484 12.2229 8.49013 10.862 8.00869C10.7414 8.33327 10.6464 8.6648 10.555 8.99829C11.8203 9.53076 13.1461 10.2354 14.3018 10.8779C15.885 11.7278 17.4415 12.5806 18.7385 13.5897C19.1562 13.8715 19.5725 14.1606 19.9828 14.4576C22.0309 15.9396 23.9281 17.5964 25.0949 19.2048C26.2616 20.8132 26.6791 22.2714 26.0256 23.5902L26.9525 24.0496C27.8227 22.2936 27.2116 20.361 25.9323 18.5974C24.653 16.8338 22.6868 15.1372 20.5894 13.6194C19.8499 13.0843 19.0941 12.5729 18.3462 12.0909C19.7681 9.97765 20.0698 8.01082 19.3093 6.80436ZM10.0911 10.6894L9.8162 11.6918C11.9659 12.6254 14.2456 13.7777 16.1668 15.074C16.4076 15.2388 16.6454 15.408 16.8801 15.5814C18.1851 16.5468 19.3504 17.6261 20.1005 18.7236C20.8505 19.821 21.1809 20.8988 20.9377 21.9678C20.6225 23.3533 20.8079 24.4079 21.3524 25.1248C21.8969 25.8418 22.7256 26.1607 23.5196 26.2921C24.1798 26.4014 25.8391 26.5766 26.6962 28.5117L27.6423 28.0927C26.5828 25.7011 24.2694 25.3676 23.6887 25.2714C23.0469 25.1652 22.5008 24.9264 22.1763 24.499C21.8517 24.0718 21.6739 23.3955 21.9465 22.1973C22.2689 20.7797 21.8062 19.3857 20.9546 18.1398C20.1032 16.8939 18.8584 15.7579 17.4955 14.7496C17.2136 14.5415 16.9277 14.339 16.6379 14.1422C16.7884 13.9911 16.9357 13.837 17.0799 13.6799C16.0701 13.0161 14.9244 12.391 13.7419 11.7539L13.2934 12.1527C12.0092 11.4821 10.8652 10.9806 10.0911 10.6893V10.6894ZM11.6462 13.6171C9.16625 15.8259 6.68258 18.03 4.19765 20.233C4.19713 20.2376 4.19667 20.238 4.19621 20.2426L3.87359 20.5283L2.73455 19.2761L2.73185 19.2805C2.30324 18.8056 1.69639 18.5283 1.03459 18.4304V19.5184C1.50723 19.6169 1.85802 19.8436 2.06413 20.1723C2.33215 20.5996 2.34083 21.1759 2.05614 21.8286C1.96136 22.0459 1.83244 22.2668 1.67426 22.4842L1.03459 23.0531V24.5365C1.16288 24.4523 1.28675 24.3641 1.4059 24.2733L13.1817 16.8659C13.8571 16.4402 14.4772 15.9998 15.0458 15.5509C13.9672 14.7882 12.7568 14.3091 11.6462 13.6172V13.6171ZM15.8208 17.9627L14.9781 18.5627C15.3999 19.1551 15.968 19.688 16.2616 20.2248C16.5552 20.7616 16.657 21.1982 16.1477 21.9515C15.7352 22.5615 15.1195 23.5991 15.2246 24.7503C15.2772 25.3259 15.5497 25.9245 16.0965 26.3806C16.6435 26.8366 17.434 27.1609 18.5422 27.344L18.7109 26.3232C17.7208 26.1596 17.11 25.8786 16.7591 25.586C16.4082 25.2934 16.2864 25.0001 16.255 24.6562C16.1921 23.9685 16.6495 23.0564 17.0048 22.531C17.6951 21.5099 17.5788 20.4773 17.1692 19.7284C16.7596 18.9795 16.1396 18.4103 15.8208 17.9627ZM13.4279 19.702L12.3941 19.7431C12.3582 21.3367 12.5569 24.115 11.3098 25.336L11.8479 26.2196C13.4255 24.992 13.4783 21.3285 13.4279 19.702ZM6.87151 22.2394C5.92428 22.4649 4.69276 23.4673 3.80668 24.0243L3.63155 25.7309C3.59706 25.9075 3.5689 26.0882 3.54947 26.272C3.44377 27.2757 3.58252 28.2268 3.92331 29.0169H5.13154C5.09555 28.96 5.06152 28.9019 5.02952 28.8427C4.71581 28.259 4.54039 27.4489 4.60131 26.5669L5.11574 24.6944C5.24029 24.4566 5.3814 24.243 5.53435 24.0618C6.58119 22.9793 7.62573 23.108 8.30937 24.3414C8.64446 24.9654 8.82287 25.8451 8.72246 26.7977C8.62831 27.691 8.30874 28.4741 7.89076 29.0169H9.16217C9.48875 28.4053 9.70878 27.688 9.79074 26.9099C9.91167 25.761 9.71257 24.6809 9.2566 23.8325C8.59331 22.9369 7.8361 22.2344 6.87151 22.2394Z" fill="#4A4947"/>
</svg>
