<svg width="50" height="50" viewBox="0 0 50 50" fill="none" xmlns="http://www.w3.org/2000/svg">
<path d="M35.5611 15.4321C35.5611 16.4931 34.6328 17.3611 33.4983 17.3611H30.2393C29.6617 17.3611 29.1048 17.2454 28.5891 17.0332L23.8449 15.0849L21.1221 22.6659V38.5802C21.1221 39.6412 20.1939 40.5093 19.0594 40.5093H14.934C13.7995 40.5093 12.8713 39.6412 12.8713 38.5802V21.8557C12.8713 21.4313 12.9538 21.0069 13.0982 20.6018L16.151 12.2685C16.9142 10.1273 19.5132 9.04707 21.7409 9.99228L30.3012 13.5224L33.4983 13.5031C34.6328 13.5031 35.5611 14.3711 35.5611 15.4321ZM23.1848 0C20.9158 0 19.0594 1.73611 19.0594 3.85802C19.0594 5.97994 20.9158 7.71605 23.1848 7.71605C25.4538 7.71605 27.3102 5.97994 27.3102 3.85802C27.3102 1.73611 25.4538 0 23.1848 0ZM27.3102 34.7222H47.9373C49.0718 34.7222 50 33.8542 50 32.7932C50 31.7322 49.0718 30.8642 47.9373 30.8642H27.3102C26.1757 30.8642 25.2475 31.7322 25.2475 32.7932C25.2475 33.8542 26.1757 34.7222 27.3102 34.7222ZM46.9059 28.9352C48.618 28.9352 50 27.6427 50 26.0417C50 24.4406 48.618 23.1481 46.9059 23.1481C45.1939 23.1481 43.8119 24.4406 43.8119 26.0417C43.8119 27.6427 45.1939 28.9352 46.9059 28.9352ZM33.4983 21.2191C33.4983 20.1582 32.5701 19.2901 31.4356 19.2901H27.3102C26.1757 19.2901 25.2475 20.1582 25.2475 21.2191C25.2475 22.2801 26.1757 23.1481 27.3102 23.1481H29.3729V25.0772C29.3729 27.1991 31.2294 28.9352 33.4983 28.9352H37.6238C39.8927 28.9352 41.7492 27.1991 41.7492 25.0772V21.2191C41.7492 20.1582 40.821 19.2901 39.6865 19.2901C38.552 19.2901 37.6238 20.1582 37.6238 21.2191V23.1481H33.4983V21.2191Z" fill="#4A4947"/>
</svg>
