<svg width="30" height="30" viewBox="0 0 30 30" fill="none" xmlns="http://www.w3.org/2000/svg">
<g clip-path="url(#clip0_308_300)">
<path d="M26.0072 20.8928C24.168 17.3982 22.3287 17.95 20.3055 17.766C20.4894 18.3178 20.4894 18.8696 20.4894 19.6053C23.4322 20.341 24.168 23.8357 24.168 25.8589V27.6982H20.4894V25.8589H22.3287C22.3287 25.8589 22.3287 21.2607 19.5697 21.2607C16.8108 21.2607 16.8108 25.675 16.8108 25.8589H18.6501V27.6982H14.9715V25.8589C14.9715 23.8357 15.7072 20.1571 18.6501 19.6053C18.6501 18.5017 18.4662 17.5821 18.2822 17.2142C17.9144 17.0303 17.5465 16.6625 17.5465 16.1107C17.5465 15.0071 19.018 15.375 20.1215 13.3517C20.1215 13.3517 21.7769 9.12139 21.2251 5.44282H19.3858C19.3858 5.07496 19.5697 4.89103 19.5697 4.52317C19.5697 4.15532 19.5697 3.97139 19.3858 3.60353H20.8572C20.3055 1.76424 18.4662 0.108887 14.9715 0.108887C11.4769 0.108887 9.6376 1.76424 8.90188 3.78746H10.3733C10.3733 4.15532 10.1894 4.33924 10.1894 4.7071C10.1894 5.07496 10.1894 5.25889 10.3733 5.62674H8.53403C8.16617 9.30532 9.6376 13.5357 9.6376 13.5357C10.7412 15.375 12.2126 15.0071 12.2126 16.2946C12.2126 17.2142 11.293 17.5821 10.1894 17.766C9.82153 18.1339 9.45367 18.8696 9.45367 20.341V22.5482C10.5572 22.916 11.293 24.0196 11.293 25.1232C11.293 26.4107 10.0055 27.6982 8.53403 27.6982C7.0626 27.6982 5.7751 26.4107 5.7751 24.9392C5.7751 23.6517 6.51081 22.7321 7.61439 22.3642V20.1571C7.61439 19.2375 7.79831 18.5017 7.98224 17.766C6.69474 17.95 5.22331 18.5017 3.93581 20.8928C2.83224 22.916 2.28046 29.5375 2.28046 29.5375H27.4787C27.6626 29.5375 27.1108 22.916 26.0072 20.8928ZM12.2126 4.7071C12.2126 3.23567 13.5001 1.94817 14.9715 1.94817C16.443 1.94817 17.7305 3.23567 17.7305 4.7071C17.7305 6.17853 16.443 7.46603 14.9715 7.46603C13.5001 7.46603 12.2126 6.17853 12.2126 4.7071Z" fill="#4A4947"/>
<path d="M9.45367 24.9392C9.45367 25.1831 9.35677 25.417 9.18431 25.5895C9.01184 25.7619 8.77793 25.8588 8.53402 25.8588C8.29012 25.8588 8.0562 25.7619 7.88374 25.5895C7.71127 25.417 7.61438 25.1831 7.61438 24.9392C7.61438 24.6953 7.71127 24.4614 7.88374 24.2889C8.0562 24.1164 8.29012 24.0195 8.53402 24.0195C8.77793 24.0195 9.01184 24.1164 9.18431 24.2889C9.35677 24.4614 9.45367 24.6953 9.45367 24.9392Z" fill="#4A4947"/>
</g>
<defs>
<clipPath id="clip0_308_300">
<rect width="29.4286" height="29.4286" fill="white" transform="translate(0.257202 0.108887)"/>
</clipPath>
</defs>
</svg>
