<svg width="36" height="37" viewBox="0 0 36 37" fill="none" xmlns="http://www.w3.org/2000/svg">
<path d="M14.3186 9.36961C16.408 6.56801 19.5495 5.74989 22.4394 6.53711C25.5588 7.38612 28.3015 10.0656 29.2124 13.7971C29.2594 13.9884 29.3001 14.1797 29.3345 14.371C28.0197 13.9025 26.5895 13.8664 25.2527 14.268C23.359 12.8672 21.0136 12.6318 18.9285 13.3998C16.3168 14.3636 14.2774 16.8077 13.805 19.883C13.2017 23.8205 15.6002 27.3578 18.9918 30.3654L19.5627 30.8598C19.1022 30.8922 18.6343 30.8201 18.1869 30.7244C17.9571 30.675 17.7285 30.6201 17.5013 30.5597L16.7111 30.3389C9.68649 28.3628 4.98381 25.2713 3.63451 20.651C2.55742 16.9636 3.59331 13.2718 5.87108 10.9764C7.98111 8.85019 11.1094 7.98794 14.3186 9.36961ZM16.714 20.3288C17.3438 16.2206 22.0951 14.1959 24.5347 17.7214C24.5581 17.7542 24.5934 17.7764 24.6331 17.7833C24.6727 17.7902 24.7135 17.7812 24.7466 17.7582C28.2442 15.2803 32.0154 18.8074 31.2017 22.8832C30.7309 25.2473 28.5384 27.2092 24.6244 28.7689L23.9844 29.0191L23.5974 29.178C23.2634 29.3089 22.9102 29.4134 22.5909 29.3575C22.2731 29.3016 21.9773 29.0809 21.7081 28.8454L21.2519 28.4334C17.848 25.5043 16.3354 22.8028 16.714 20.3288Z" fill="#4A4947"/>
</svg>
