<svg width="50" height="50" viewBox="0 0 50 50" fill="none" xmlns="http://www.w3.org/2000/svg">
<path d="M26.375 22.3062C25.4375 22.4781 24.5156 22.4 23.7031 22.1344C23.4219 22.0406 23.2031 22.3844 23.4063 22.6031C24.2031 23.4625 25.3906 23.9 26.625 23.6812C27.8594 23.4625 28.8281 22.6344 29.2813 21.5719C29.3906 21.3062 29.0781 21.0562 28.8438 21.2437C28.1563 21.7594 27.3125 22.1344 26.375 22.3062ZM24.4219 19.9625L24.7813 17.0719C24.8594 16.4312 25.7188 16.2906 26.0156 16.8687L27.3438 19.4469C27.6094 19.9781 27.2969 20.6187 26.7031 20.7281L25.4531 20.9469C25.3165 20.9711 25.176 20.9628 25.0431 20.9226C24.9103 20.8825 24.7887 20.8116 24.6883 20.7158C24.5879 20.6199 24.5115 20.5018 24.4652 20.3709C24.4189 20.2401 24.4041 20.1001 24.4219 19.9625ZM19.0313 15.4312C18.875 15.4625 18.7031 15.4 18.6094 15.275C18.4531 15.0875 18.4688 14.7906 18.6719 14.6344L18.6859 14.6234C18.8391 14.5031 20.1 13.5094 21.75 13.525C21.8702 13.525 21.9854 13.5727 22.0704 13.6577C22.1554 13.7427 22.2031 13.8579 22.2031 13.9781C22.2031 14.0983 22.1554 14.2135 22.0704 14.2985C21.9854 14.3835 21.8702 14.4312 21.75 14.4312C20.4922 14.4312 19.4906 15.1594 19.2984 15.2984L19.2656 15.3219C19.1977 15.3771 19.1172 15.4146 19.0313 15.4312ZM30.6094 13.3375C30.6875 13.3687 30.7656 13.3687 30.8438 13.3531C31 13.3219 31.125 13.2125 31.1875 13.0719C31.2098 13.0166 31.2206 12.9574 31.2192 12.8979C31.2177 12.8383 31.2042 12.7797 31.1793 12.7255C31.1544 12.6714 31.1188 12.6229 31.0745 12.5831C31.0303 12.5432 30.9783 12.5128 30.9219 12.4937L30.8969 12.4859C30.6797 12.4187 29.175 11.9484 27.6563 12.5094C27.4219 12.5875 27.2969 12.8531 27.3906 13.0875C27.4688 13.3219 27.7344 13.4469 27.9688 13.3531C29.1766 12.9015 30.4125 13.2781 30.5875 13.3312L30.6031 13.3359L30.6094 13.3375ZM30.5938 15.9765C30.4688 15.9922 30.375 16.0703 30.2969 16.1797C30.0469 16.5859 29.6406 16.8828 29.1406 16.9765C28.6406 17.0703 28.1563 16.9297 27.7969 16.6172C27.6991 16.5419 27.5756 16.5082 27.4531 16.5234C27.1094 16.5859 26.9844 17.0234 27.2656 17.2578C27.8125 17.7109 28.5469 17.9297 29.2969 17.789C30.0469 17.664 30.6563 17.2109 31.0313 16.5859C31.2031 16.289 30.9375 15.914 30.5938 15.9765ZM23.0625 17.4453C23.1406 17.3359 23.2344 17.2578 23.3594 17.2422C23.7031 17.1953 23.9688 17.5703 23.7969 17.8672C23.4219 18.4922 22.8125 18.9453 22.0625 19.0703C21.3125 19.2109 20.5781 18.9922 20.0313 18.539C19.75 18.3047 19.875 17.8672 20.2188 17.8047C20.3438 17.7734 20.4688 17.8203 20.5625 17.8984C20.9375 18.1953 21.4219 18.3359 21.9063 18.2422C22.4063 18.1484 22.8125 17.8515 23.0625 17.4453Z" fill="#4A4947"/>
<path d="M37.8906 17.6812C38.1094 16.9 38.1562 16.0562 38.0156 15.1968C37.8125 14.0718 37.2969 13.0875 36.5625 12.3218C35.8281 11.5406 35.3437 10.5718 35.1562 9.52497V9.50934C34.8971 8.0518 34.0707 6.75642 32.8582 5.90707C31.6456 5.05772 30.1459 4.72366 28.6875 4.97809C28.5395 5.00469 28.3874 4.9959 28.2434 4.95245C28.0995 4.909 27.9679 4.83212 27.8594 4.72809C27.2268 4.10461 26.4542 3.64167 25.606 3.37799C24.7579 3.1143 23.8589 3.05755 22.9844 3.21247C21.125 3.52497 19.6406 4.72809 18.8906 6.29059C18.7656 6.57184 18.5 6.75934 18.2031 6.80622C15.1562 7.35309 13.125 10.2437 13.6719 13.2906V13.3062C13.8594 14.3531 13.7344 15.4468 13.3125 16.4156C12.8906 17.3843 12.7344 18.4937 12.9375 19.6187C13.0937 20.4781 13.4219 21.2437 13.9062 21.9156C14.0625 22.1343 14.1094 22.4156 14.0312 22.6812C13.8125 23.4468 13.75 24.2906 13.9062 25.1343C14.0516 25.9675 14.3893 26.7552 14.8924 27.4349C15.3956 28.1147 16.0503 28.6676 16.8047 29.05C15.7662 29.8631 14.8348 30.8044 14.0328 31.8515L7.3125 40.0703C6.63594 40.8234 6.25 41.889 6.25 42.9609C6.25 43.9969 6.66155 44.9905 7.39411 45.723C8.12668 46.4556 9.12025 46.8672 10.1562 46.8672H21.7453C21.787 46.8703 21.8302 46.8703 21.875 46.8672H39.4062C40.9375 46.8672 42.1719 45.6172 42.1719 44.0859L42.1562 40.9765C42.1559 40.6701 42.1465 40.3637 42.1281 40.0578C42.9023 38.9692 43.3717 37.6937 43.4878 36.363C43.6039 35.0322 43.3625 33.6947 42.7886 32.4885C42.2147 31.2823 41.329 30.2513 40.2232 29.502C39.1173 28.7528 37.8314 28.3124 36.4984 28.2265C35.9027 27.7798 35.2773 27.3742 34.6266 27.0125C36.0391 26.7465 37.2895 25.9337 38.1058 24.7507C38.9222 23.5677 39.2385 22.1102 38.9859 20.6953C38.8297 19.8515 38.5016 19.0859 38.0328 18.4453C37.9496 18.3383 37.8934 18.2129 37.8689 18.0797C37.8445 17.9464 37.8524 17.8092 37.8922 17.6797M19.4859 40.7109L19.4187 40.6984C19.8614 39.8236 20.5515 39.0982 21.4031 38.6125L25.2031 36.425C26.2047 35.8463 27.3739 35.6269 28.5172 35.8031C28.5297 36.8187 28.7437 37.7875 29.1234 38.6687C29.1521 38.7928 29.2058 38.9098 29.2812 39.0125C29.4423 39.3395 29.6261 39.6549 29.8312 39.9562C29.6978 39.9762 29.5707 40.0263 29.4594 40.1026C29.3482 40.1789 29.2557 40.2796 29.1891 40.3968C28.9547 40.8187 29.1109 41.3656 29.5328 41.6L32.2797 43.1359C31.9922 43.6984 31.5969 44.2109 31.1016 44.639C30.9756 44.3707 30.7759 44.1438 30.5258 43.9847C30.2757 43.8256 29.9855 43.7409 29.6891 43.7406H25.9391C25.7984 43.7406 25.7359 43.5687 25.8297 43.475L26.2047 43.1C26.3493 42.9553 26.4641 42.7836 26.5424 42.5946C26.6207 42.4056 26.661 42.203 26.661 41.9984C26.661 41.7938 26.6207 41.5913 26.5424 41.4022C26.4641 41.2132 26.3493 41.0415 26.2047 40.8968C26.06 40.7522 25.8883 40.6374 25.6993 40.5591C25.5103 40.4809 25.3077 40.4406 25.1031 40.4406C24.8985 40.4406 24.696 40.4809 24.507 40.5591C24.318 40.6374 24.1462 40.7522 24.0016 40.8968L21.8344 43.0656C21.7291 42.4806 21.4478 41.9416 21.0282 41.5206C20.6086 41.0996 20.0706 40.8182 19.4859 40.7109ZM36.0172 29.7718C37.1987 29.772 38.3532 30.1246 39.3332 30.7846C40.3131 31.4445 41.0739 32.3819 41.5182 33.4766C41.9624 34.5714 42.07 35.7738 41.8271 36.93C41.5842 38.0862 41.0019 39.1437 40.1547 39.9672L40.1609 39.9765C39.9513 40.1783 39.7279 40.3652 39.4922 40.5359C39.4456 40.4128 39.3914 40.2928 39.3297 40.1765C38.9703 39.5047 38.7047 38.7859 38.5484 38.0515C38.4064 37.392 38.3072 36.7239 38.2516 36.0515C38.2335 35.7952 38.1151 35.5563 37.9221 35.3866C37.729 35.217 37.4769 35.1303 37.2203 35.1453C36.6891 35.1765 36.2828 35.6453 36.3141 36.1765C36.3141 36.2234 36.3609 36.7547 36.4703 37.5203C36.4859 37.6297 36.3609 37.6922 36.2828 37.6297C35.0797 36.6765 33.8766 35.2859 33.4078 34.6922C33.3376 34.5997 33.2494 34.5224 33.1485 34.465C33.0475 34.4076 32.936 34.3712 32.8207 34.358C32.7053 34.3449 32.5885 34.3553 32.4772 34.3885C32.366 34.4218 32.2627 34.4772 32.1734 34.5515C32.081 34.6217 32.0037 34.71 31.9463 34.8109C31.8888 34.9118 31.8524 35.0233 31.8393 35.1387C31.8262 35.254 31.8365 35.3709 31.8698 35.4821C31.9031 35.5933 31.9585 35.6967 32.0328 35.7859L32.0922 35.8593C32.1891 35.9781 32.3984 36.2343 32.6906 36.5656C32.7771 36.7781 32.875 36.988 32.9844 37.1953C32.4601 36.709 31.9545 36.2029 31.4687 35.6781L31.4531 35.6625C31.3642 35.5653 31.2548 35.4891 31.1328 35.4395C31.0109 35.3898 30.8793 35.3679 30.7479 35.3754C30.6164 35.3829 30.4882 35.4195 30.3726 35.4827C30.257 35.5459 30.157 35.634 30.0797 35.7406V35.7093C30.0777 34.3169 30.5659 32.9683 31.4587 31.8998C32.3515 30.8313 33.5919 30.1111 34.9625 29.8656C35.3062 29.8031 35.6578 29.7718 36.0172 29.7718ZM30.4266 37.7125C30.334 37.4521 30.2589 37.1859 30.2016 36.9156C30.4437 37.1703 31.3656 38.0937 32.2984 38.9593C32.3297 38.9906 32.2984 39.0218 32.2672 39.0062L30.4703 37.7406L30.4266 37.7125ZM33.7516 37.8797L33.6656 37.8062C33.5852 37.6484 33.4982 37.4941 33.4047 37.3437L33.5328 37.4734C33.5974 37.5463 33.6641 37.6146 33.7328 37.6781L33.8297 37.7718C33.8609 37.8031 33.8609 37.85 33.8297 37.8812C33.7984 37.8968 33.7672 37.8953 33.7516 37.8797ZM31.2016 29.9593C30.0966 30.8839 29.2813 32.1071 28.8531 33.4828C27.5781 33.29 26.2749 33.4327 25.0719 33.8968C24.4063 32.6464 24.06 31.2509 24.0641 29.8343V28.9578C25.175 29.1359 26.3375 29.1297 27.5078 28.9203C28.9374 28.6734 30.2988 28.1277 31.5031 27.3187C32.3917 27.6281 33.2375 28.0135 34.0406 28.475C32.9984 28.7595 32.03 29.2658 31.2016 29.9593ZM30.3969 26.1781L30.2906 26.2437C29.3526 26.8109 28.3164 27.1967 27.2359 27.3812C25.9207 27.6236 24.5671 27.5556 23.2828 27.1828C22.7056 27.0127 22.149 26.7789 21.6234 26.4859H21.6266C21.1465 26.2179 20.6961 25.9 20.2828 25.5375C19.0609 24.4656 18.1422 22.9875 17.7109 21.175C17.0096 21.2651 16.3005 21.0811 15.7315 20.6614C15.1624 20.2416 14.7773 19.6185 14.6562 18.9218C14.5419 18.2664 14.669 17.5917 15.014 17.0229C15.3591 16.454 15.8987 16.0295 16.5328 15.8281L16.5172 15.7562C16.2672 14.1781 17.0641 13.4125 17.4234 13.1468L17.4656 13.1218C17.5067 13.0981 17.545 13.0698 17.5797 13.0375C18.3922 12.4906 18.9859 11.6468 19.1891 10.6625L19.2672 10.3343C19.3453 9.99059 19.7672 9.86559 20.0172 10.1156C21.5172 11.6468 23.6578 12.3343 25.7672 11.9593L31.0797 11.0218C31.3703 10.9765 32.8891 10.8562 33.3484 12.9328H33.3516C33.9952 12.9624 34.6081 13.217 35.0832 13.6524C35.5583 14.0877 35.8654 14.676 35.951 15.3147C36.0365 15.9533 35.8951 16.6017 35.5514 17.1468C35.2077 17.6918 34.6835 18.0989 34.0703 18.2968C34.1695 19.1369 34.1463 19.9869 34.0016 20.8203C33.8106 21.9166 33.3905 22.9602 32.7685 23.8829C32.1465 24.8057 31.3368 25.5867 30.3922 26.175L30.3969 26.1781Z" fill="#4A4947"/>
</svg>
