<svg width="36" height="36" viewBox="0 0 36 36" fill="none" xmlns="http://www.w3.org/2000/svg">
<path d="M8.72495 2.71045C7.23295 2.71045 6.02466 3.92018 6.02466 5.41074V30.2534C6.02466 31.744 7.23439 32.9537 8.72495 32.9537H27.087C28.5775 32.9537 29.7872 31.744 29.7872 30.2534V18.9122C29.7872 17.4799 29.2183 16.1062 28.2055 15.0934C27.1926 14.0806 25.819 13.5116 24.3867 13.5116H21.6864C20.9702 13.5116 20.2834 13.2271 19.777 12.7207C19.2706 12.2143 18.9861 11.5275 18.9861 10.8113V8.11104C18.9861 6.67871 18.4171 5.30505 17.4043 4.29224C16.3915 3.27944 15.0178 2.71045 13.5855 2.71045H8.72495Z" fill="#CACFDE"/>
<path d="M19.3044 3.16553C20.4948 4.53794 21.1489 6.29433 21.1464 8.11102V10.8113C21.1464 11.1094 21.3884 11.3514 21.6865 11.3514H24.3868C26.2034 11.3489 27.9598 12.003 29.3323 13.1933C28.6984 10.7837 27.436 8.58555 25.6741 6.82368C23.9122 5.06182 21.7141 3.79942 19.3044 3.16553Z" fill="#CACFDE"/>
</svg>
