<svg width="150" height="180" viewBox="0 0 150 180" fill="none" xmlns="http://www.w3.org/2000/svg">
<g id="footprint 2" filter="url(#filter0_ii_414_592)">
<g id="Group">
<g id="Group_2">
<path id="Vector" d="M44.5682 70.1521C42.9905 79.228 45.6119 95.4829 58.0634 105.172C68.6946 113.46 76.9228 99.3058 69.7383 89.7339C67.3354 86.5529 64.0829 85.4732 67.8208 74.4128C71.5587 63.3525 65.6121 56.728 57.9178 57.0782C50.2236 57.4576 45.7332 63.4984 44.5682 70.1521Z" fill="#847090"/>
<path id="Vector_2" d="M66.413 48.6735C66.413 50.415 65.945 52.0851 65.112 53.3165C64.279 54.5479 63.1492 55.2397 61.9712 55.2397C61.3879 55.2397 60.8103 55.0698 60.2714 54.7399C59.7325 54.4099 59.2428 53.9262 58.8304 53.3165C58.4179 52.7068 58.0908 51.9829 57.8675 51.1863C57.6443 50.3897 57.5294 49.5358 57.5294 48.6735C57.5294 47.8113 57.6443 46.9574 57.8675 46.1608C58.0908 45.3641 58.4179 44.6403 58.8304 44.0306C59.2428 43.4208 59.7325 42.9372 60.2714 42.6072C60.8103 42.2772 61.3879 42.1074 61.9712 42.1074C63.1492 42.1074 64.279 42.7992 65.112 44.0306C65.945 45.262 66.413 46.9321 66.413 48.6735Z" fill="#847090"/>
<path id="Vector_3" d="M56.1357 49.6795C56.2911 50.2272 56.3718 50.7995 56.3734 51.3638C56.3749 51.9281 56.2972 52.4732 56.1446 52.9681C55.9921 53.463 55.7678 53.8979 55.4844 54.2481C55.201 54.5983 54.8641 54.8569 54.4931 55.009C53.7436 55.3163 52.9002 55.1716 52.1484 54.6067C51.3966 54.0418 50.798 53.103 50.4842 51.9968C50.1705 50.8907 50.1673 49.7077 50.4753 48.7082C50.7834 47.7087 51.3775 46.9746 52.1269 46.6673C52.8763 46.36 53.7197 46.5047 54.4715 47.0696C55.2233 47.6345 55.8219 48.5733 56.1357 49.6795Z" fill="#847090"/>
<path id="Vector_4" d="M50.1066 53.79C50.2938 54.2474 50.4183 54.7363 50.473 55.2287C50.5277 55.7212 50.5116 56.2076 50.4255 56.6602C50.3394 57.1129 50.1851 57.5228 49.9713 57.8666C49.7576 58.2105 49.4886 58.4815 49.1797 58.6642C48.8708 58.847 48.5281 58.9378 48.1711 58.9316C47.8141 58.9254 47.4498 58.8223 47.099 58.6281C46.7483 58.4339 46.4179 58.1525 46.1268 57.7999C45.8356 57.4473 45.5895 57.0304 45.4023 56.573C45.2151 56.1157 45.0906 55.6268 45.0359 55.1343C44.9812 54.6419 44.9973 54.1554 45.0834 53.7028C45.1695 53.2502 45.3238 52.8403 45.5376 52.4964C45.7513 52.1526 46.0203 51.8816 46.3292 51.6988C46.6381 51.5161 46.9808 51.4252 47.3378 51.4314C47.6948 51.4376 48.0591 51.5408 48.4099 51.7349C48.7607 51.9291 49.091 52.2106 49.3822 52.5632C49.6733 52.9158 49.9195 53.3327 50.1066 53.79Z" fill="#847090"/>
<path id="Vector_5" d="M45.4405 59.1783C45.9425 59.8944 46.2302 60.7774 46.2406 61.6329C46.2509 62.4885 45.9829 63.2465 45.4956 63.7403C45.0082 64.234 44.3414 64.4231 43.6419 64.2658C42.9424 64.1086 42.2674 63.6179 41.7655 62.9017C41.2635 62.1856 40.9758 61.3026 40.9654 60.4471C40.9551 59.5915 41.2231 58.8335 41.7105 58.3397C42.1978 57.846 42.8646 57.6569 43.5641 57.8142C44.2636 57.9714 44.9386 58.4621 45.4405 59.1783Z" fill="#847090"/>
<path id="Vector_6" d="M42.3807 65.5635C42.6681 65.8246 42.9178 66.1385 43.1156 66.4874C43.3135 66.8362 43.4555 67.2132 43.5337 67.5967C43.6119 67.9802 43.6246 68.3628 43.5713 68.7226C43.5179 69.0824 43.3994 69.4123 43.2226 69.6936C42.8656 70.2617 42.2926 70.597 41.6297 70.6259C40.9669 70.6547 40.2685 70.3747 39.6882 69.8474C39.1078 69.3201 38.6931 68.5887 38.5352 67.8142C38.3773 67.0396 38.4892 66.2854 38.8463 65.7173C39.0231 65.436 39.2548 65.2089 39.5281 65.0489C39.8014 64.889 40.111 64.7993 40.4392 64.785C40.7674 64.7707 41.1078 64.8321 41.4409 64.9657C41.774 65.0993 42.0934 65.3024 42.3807 65.5635Z" fill="#847090"/>
</g>
<g id="Group_3">
<path id="Vector_7" d="M105.418 88.8C106.996 97.8759 104.374 114.131 91.9229 123.819C81.2917 132.107 73.0635 117.954 80.2481 108.382C82.651 105.201 85.9034 104.121 82.1656 93.0607C78.4277 82.0004 84.3743 75.3759 92.0685 75.7261C99.7628 76.1054 104.277 82.1463 105.418 88.8Z" fill="#847090"/>
<path id="Vector_8" d="M92.4568 67.3214C92.4568 69.0629 91.9888 70.733 91.1558 71.9644C90.3228 73.1958 89.1931 73.8876 88.015 73.8876C86.837 73.8876 85.7072 73.1958 84.8742 71.9644C84.0412 70.733 83.5732 69.0629 83.5732 67.3214C83.5732 65.58 84.0412 63.9098 84.8742 62.6784C85.7072 61.4471 86.837 60.7553 88.015 60.7553C89.1931 60.7553 90.3228 61.4471 91.1558 62.6784C91.9888 63.9098 92.4568 65.58 92.4568 67.3214Z" fill="#847090"/>
<path id="Vector_9" d="M93.8414 68.3451C94.1551 67.2389 94.7538 66.3001 95.5056 65.7352C96.2574 65.1703 97.1008 65.0256 97.8502 65.3329C98.5996 65.6402 99.1937 66.3743 99.5018 67.3738C99.8098 68.3733 99.8066 69.5563 99.4928 70.6624C99.1791 71.7686 98.5804 72.7074 97.8286 73.2723C97.0768 73.8372 96.2334 73.9819 95.484 73.6746C94.7346 73.3673 94.1405 72.6332 93.8324 71.6337C93.5244 70.6342 93.5276 69.4512 93.8414 68.3451Z" fill="#847090"/>
<path id="Vector_10" d="M99.8817 72.4373C100.26 71.5136 100.87 70.7744 101.578 70.3822C102.287 69.99 103.035 69.977 103.659 70.3461C103.968 70.5288 104.237 70.7998 104.451 71.1437C104.665 71.4875 104.819 71.8975 104.905 72.3501C104.991 72.8027 105.007 73.2891 104.952 73.7816C104.898 74.2741 104.773 74.7629 104.586 75.2203C104.399 75.6776 104.153 76.0945 103.862 76.4471C103.57 76.7998 103.24 77.0812 102.889 77.2754C102.539 77.4696 102.174 77.5727 101.817 77.5789C101.46 77.5851 101.118 77.4942 100.809 77.3115C100.185 76.9425 99.7367 76.2216 99.5629 75.3075C99.389 74.3934 99.5037 73.361 99.8817 72.4373Z" fill="#847090"/>
<path id="Vector_11" d="M104.57 77.8256C105.072 77.1095 105.747 76.6188 106.447 76.4616C107.146 76.3043 107.813 76.4934 108.3 76.9871C108.788 77.4809 109.056 78.2389 109.045 79.0945C109.035 79.95 108.747 80.833 108.245 81.5491C107.743 82.2653 107.068 82.7559 106.369 82.9132C105.669 83.0704 105.003 82.8814 104.515 82.3876C104.028 81.8939 103.76 81.1358 103.77 80.2803C103.781 79.4248 104.068 78.5418 104.57 77.8256Z" fill="#847090"/>
<path id="Vector_12" d="M107.619 84.1987C107.906 83.9376 108.226 83.7345 108.559 83.6009C108.892 83.4673 109.232 83.4059 109.561 83.4202C109.889 83.4345 110.198 83.5242 110.472 83.6841C110.745 83.8441 110.977 84.0712 111.154 84.3525C111.511 84.9206 111.623 85.6748 111.465 86.4494C111.307 87.2239 110.892 87.9553 110.312 88.4826C109.731 89.0099 109.033 89.2899 108.37 89.2611C107.707 89.2322 107.134 88.8969 106.777 88.3288C106.6 88.0475 106.482 87.7176 106.429 87.3578C106.375 86.998 106.388 86.6154 106.466 86.2319C106.544 85.8484 106.686 85.4714 106.884 85.1226C107.082 84.7737 107.332 84.4598 107.619 84.1987Z" fill="#847090"/>
</g>
</g>
</g>
<defs>
<filter id="filter0_ii_414_592" x="-4" y="-4" width="158" height="188" filterUnits="userSpaceOnUse" color-interpolation-filters="sRGB">
<feFlood flood-opacity="0" result="BackgroundImageFix"/>
<feBlend mode="normal" in="SourceGraphic" in2="BackgroundImageFix" result="shape"/>
<feColorMatrix in="SourceAlpha" type="matrix" values="0 0 0 0 0 0 0 0 0 0 0 0 0 0 0 0 0 0 127 0" result="hardAlpha"/>
<feOffset dy="4"/>
<feGaussianBlur stdDeviation="2"/>
<feComposite in2="hardAlpha" operator="arithmetic" k2="-1" k3="1"/>
<feColorMatrix type="matrix" values="0 0 0 0 0 0 0 0 0 0 0 0 0 0 0 0 0 0 0.25 0"/>
<feBlend mode="normal" in2="shape" result="effect1_innerShadow_414_592"/>
<feColorMatrix in="SourceAlpha" type="matrix" values="0 0 0 0 0 0 0 0 0 0 0 0 0 0 0 0 0 0 127 0" result="hardAlpha"/>
<feOffset dy="4"/>
<feGaussianBlur stdDeviation="2"/>
<feComposite in2="hardAlpha" operator="arithmetic" k2="-1" k3="1"/>
<feColorMatrix type="matrix" values="0 0 0 0 0 0 0 0 0 0 0 0 0 0 0 0 0 0 0.25 0"/>
<feBlend mode="normal" in2="effect1_innerShadow_414_592" result="effect2_innerShadow_414_592"/>
</filter>
</defs>
</svg>
