<svg width="57" height="48" viewBox="0 0 57 48" fill="none" xmlns="http://www.w3.org/2000/svg">
<g clip-path="url(#clip0_863_534)">
<path d="M12.351 0.115325C15.5481 -0.299342 18.8701 0.412436 21.6063 2.11821C23.1508 3.02866 24.3863 4.34644 25.6532 5.59399C26.5721 6.49355 27.4814 7.40399 28.4028 8.30132L28.4368 8.39466C27.7486 9.07214 26.9677 10.4271 26.0939 12.4595C24.2614 13.104 23.0109 13.7547 22.3423 14.4115C20.8499 12.9749 19.4059 11.4873 17.9194 10.0433C16.5059 8.71955 14.3697 8.18599 12.5183 8.79355C10.4101 9.38621 8.80122 11.4024 8.68967 13.5909C8.617 14.7293 8.91411 15.8858 9.52989 16.846C9.913 17.4644 10.4732 17.936 10.975 18.4524C12.1814 19.6649 13.4168 20.8493 14.605 22.0787C13.9705 22.7022 13.2191 23.9092 12.351 25.6995C10.5046 26.5747 9.22359 27.3705 8.50789 28.0871C6.90389 26.5789 5.37011 24.9893 3.78078 23.4644C1.88833 21.4955 0.622777 18.9411 0.186111 16.246C-0.293889 13.3544 0.161888 10.3102 1.50056 7.69999C2.62456 5.51155 4.32544 3.61066 6.395 2.27555C8.19389 1.14444 10.2317 0.351769 12.351 0.115325Z" fill="#EA4335"/>
<path d="M28.4635 35.7288L42.3319 22.0605L46.0815 24.2877L48.4277 28.1005L28.4635 47.8512L14.6146 34.1503L17.2721 30.4105L20.7479 28.0957L28.4635 35.7288Z" fill="#34A853"/>
<path d="M22.3543 14.4248L25.8425 16.3117L28.4634 20.4819L14.6145 34.1501L8.50787 28.087L22.3543 14.4248Z" fill="#FBBC05"/>
<path d="M45.1857 0.198868C49.2497 0.887757 52.9875 3.42509 55.0363 7.01487C57.3701 10.9586 57.4975 16.0762 55.4266 20.1571C54.5683 21.91 53.2577 23.3891 51.8621 24.7338C50.7043 25.8404 49.6048 27.0215 48.4277 28.1004C46.3908 26.0929 44.3517 24.0862 42.3319 22.0604C43.771 20.6069 45.233 19.1773 46.677 17.7286C47.6081 16.7878 48.1912 15.4978 48.2386 14.1704C48.3028 12.6633 47.7075 11.1346 46.6152 10.0895C45.5021 9.03598 43.943 8.43709 42.4081 8.5642C41.0881 8.62731 39.8137 9.22642 38.8826 10.1598C35.4079 13.598 31.9419 17.046 28.4635 20.482C26.4183 18.4718 24.3706 16.4642 22.3546 14.4249L22.3423 14.4115C24.379 12.4111 26.4023 10.3973 28.4368 8.39465C29.911 6.9422 31.3806 5.48353 32.8559 4.0302C34.7666 2.11087 37.2859 0.853535 39.9181 0.276646C41.6528 -0.0495766 43.4426 -0.086021 45.1857 0.198868Z" fill="#4285F4"/>
</g>
<defs>
<clipPath id="clip0_863_534">
<rect width="56.89" height="48" fill="white"/>
</clipPath>
</defs>
</svg>
