<svg width="36" height="36" viewBox="0 0 36 36" fill="none" xmlns="http://www.w3.org/2000/svg">
<path d="M10.946 28.0053V21.0822C10.1418 20.2545 8.70498 18.4189 8.19146 16.0014C10.6068 16.3302 13.9102 16.5311 17.5409 16.5311C20.8023 16.5311 23.7996 16.3692 26.126 16.0977C26.457 16.9284 26.7763 17.7207 27.0478 18.3946C27.1382 18.6184 27.1722 18.8608 27.1469 19.1008C27.1216 19.3407 27.0378 19.5708 26.9029 19.7708C26.7679 19.9708 26.5859 20.1346 26.3728 20.2478C26.1597 20.361 25.9221 20.4201 25.6809 20.4201H25.2733V22.7331C25.2733 23.1234 25.1182 23.4977 24.8423 23.7736C24.5664 24.0495 24.1921 24.2046 23.8018 24.2046H20.5103V28.0053H10.946ZM16.4947 7.40527C10.5266 7.40527 8.48059 10.8948 8.08036 13.3212C7.10775 13.1821 6.29626 13.0225 5.68561 12.8466L5.61425 12.826C4.84396 12.5965 4.41504 12.3412 4.41504 12.0719C4.41504 11.8026 4.84396 11.5481 5.61425 11.3185L5.68561 11.2979C6.25997 11.1409 6.84256 11.0156 7.43073 10.9227C7.71251 10.4269 8.12598 9.85888 8.56814 9.27399L8.05903 9.3402C6.83995 9.50795 5.77831 9.71542 4.9911 9.97144C4.60853 10.0958 4.20168 10.2584 3.86104 10.4864C3.58736 10.6704 2.94287 11.1765 2.94287 12.0719C2.94287 12.968 3.58736 13.4734 3.86104 13.6574C4.20168 13.8854 4.60853 14.0488 4.99184 14.1724C5.77905 14.4284 6.83995 14.6366 8.05903 14.8036C10.5193 15.142 13.8712 15.3451 17.5416 15.3451C21.2121 15.3451 24.5633 15.1413 27.0235 14.8036C28.2426 14.6366 29.3042 14.4284 30.0915 14.1731C30.474 14.048 30.8809 13.8862 31.2208 13.6574C31.4952 13.4734 32.1397 12.968 32.1397 12.0719C32.1397 11.1758 31.4952 10.6711 31.2215 10.4872C30.8809 10.2591 30.474 10.0958 30.0907 9.97144C29.4919 9.77722 28.7333 9.60947 27.8674 9.46748V7.40527L24.9245 10.3481L27.8674 12.9231V10.9595C28.4073 11.0493 28.9418 11.1692 29.4683 11.3185C30.2386 11.5481 30.6675 11.8034 30.6675 12.0719C30.6675 12.3412 30.2386 12.5965 29.4683 12.826L29.3969 12.8466C28.4243 13.1262 26.9404 13.3668 25.1114 13.5441C24.7362 12.5935 24.3889 11.7004 24.1197 10.9875C23.9196 10.4578 23.5311 10.1046 23.0441 9.66024L22.8734 9.50353C21.5174 8.25502 19.9724 7.40527 16.4947 7.40527Z" fill="#4A4749"/>
</svg>
