<svg width="30" height="31" viewBox="0 0 30 31" fill="none" xmlns="http://www.w3.org/2000/svg">
<path d="M8.58335 3.40625C10.766 3.40625 11.8573 6.05482 10.3245 7.59982C8.77954 9.13256 6.13097 8.04125 6.13097 5.85863C6.13097 5.20822 6.38935 4.58445 6.84926 4.12454C7.30917 3.66462 7.93294 3.40625 8.58335 3.40625ZM6.74407 9.5372H10.4226C11.0731 9.5372 11.6968 9.79558 12.1567 10.2555C12.6166 10.7154 12.875 11.3392 12.875 11.9896V18.7336H11.0357V27.9301H6.13097V18.7336H4.29169V11.9896C4.29169 11.3392 4.55006 10.7154 5.00997 10.2555C5.46988 9.79558 6.09366 9.5372 6.74407 9.5372ZM25.75 10.7634H18.3929V13.2158H25.75M25.75 14.442H22.0714V16.8943H25.75M25.75 3.40625H18.3929V5.85863H25.75M25.75 7.08482H22.0714V9.5372H25.75M25.75 18.1205H18.3929V20.5729H25.75M25.75 25.4777H18.3929V27.9301H25.75M25.75 21.7991H22.0714V24.2515H25.75" fill="#4A4947"/>
</svg>
