<svg width="50" height="50" viewBox="0 0 50 50" fill="none" xmlns="http://www.w3.org/2000/svg">
<g clip-path="url(#clip0_197_376)">
<path d="M20.8979 20.3125H29.2313M25.0646 16.1458V24.4792M7.74794 48.4375L3.90211 43.6292C2.68566 42.1052 2.02437 40.2124 2.02711 38.2625V28.3854C2.0271 27.6271 2.32776 26.8998 2.86318 26.3628C3.39859 25.8258 4.12507 25.523 4.88336 25.5208C5.64292 25.5214 6.37122 25.8234 6.90831 26.3605C7.44541 26.8976 7.74739 27.6259 7.74794 28.3854V35.7854M35.4813 22.3958C35.4813 25.1585 34.3838 27.808 32.4303 29.7615C30.4768 31.715 27.8273 32.8125 25.0646 32.8125C22.3019 32.8125 19.6524 31.715 17.6989 29.7615C15.7454 27.808 14.6479 25.1585 14.6479 22.3958C14.6479 14.5833 25.0646 1.5625 25.0646 1.5625C25.0646 1.5625 35.4813 14.5833 35.4813 22.3958Z" stroke="#4A4947" stroke-width="3.125" stroke-linecap="round" stroke-linejoin="round"/>
<path d="M16.3417 48.177V42.4478C16.3411 40.7497 15.838 39.0898 14.8958 37.677L12.7083 34.4083C12.5221 34.0979 12.2749 33.8285 11.9815 33.6165C11.6882 33.4044 11.3549 33.2541 11.0018 33.1747C10.6486 33.0952 10.2831 33.0882 9.92718 33.1542C9.57129 33.2201 9.23247 33.3576 8.93126 33.5583C8.38949 33.9202 7.99834 34.4674 7.83112 35.0971C7.6639 35.7269 7.7321 36.396 8.02292 36.9791L10.6063 41.277M42.2521 48.4374L46.0979 43.6291C47.3146 42.1041 47.975 40.2124 47.9729 38.2624V28.3853C47.9729 27.6256 47.6711 26.897 47.1339 26.3598C46.5967 25.8226 45.8681 25.5208 45.1083 25.5208C44.3488 25.5213 43.6205 25.8233 43.0834 26.3604C42.5463 26.8975 42.2443 27.6258 42.2438 28.3853V35.7853" stroke="#4A4947" stroke-width="3.125" stroke-linecap="round" stroke-linejoin="round"/>
<path d="M33.6583 48.1771V42.4479C33.6583 40.75 34.1625 39.0896 35.1042 37.6771L37.2917 34.4083C37.4781 34.0982 37.7254 33.829 38.0188 33.6172C38.3121 33.4053 38.6454 33.2551 38.9984 33.1757C39.3515 33.0962 39.717 33.0892 40.0728 33.1549C40.4286 33.2207 40.7674 33.3579 41.0687 33.5583C41.6102 33.9206 42.001 34.4678 42.1682 35.0974C42.3354 35.7271 42.2674 36.396 41.9771 36.9792L39.3937 41.2771" stroke="#4A4947" stroke-width="3.125" stroke-linecap="round" stroke-linejoin="round"/>
</g>
<defs>
<clipPath id="clip0_197_376">
<rect width="50" height="50" fill="white"/>
</clipPath>
</defs>
</svg>
