<svg width="35" height="45" viewBox="0 0 35 45" fill="none" xmlns="http://www.w3.org/2000/svg">
<path d="M15.1287 30.0821L12.4666 26.9238L15.1287 23.7432L17.7719 26.9238L20.4152 23.7432L17.7719 20.5849L20.4152 17.4266L23.0773 20.5849L25.7205 17.4266L20.4152 11.0876L7.16134 26.9238L12.4666 33.2628L15.1287 30.0821ZM0.00012207 38.6386L5.84908 31.6725L1.87479 26.9238L20.4152 4.74863L24.4083 9.51966L27.0328 6.33897L24.4083 3.15829L27.0328 0L35.0001 9.51966L32.3568 12.6556L29.6948 9.51966L27.0328 12.6556L31.0258 17.4266L12.4666 39.5794L8.49236 34.8308L0.00012207 45V38.6386Z" fill="#4A4947"/>
</svg>
