<svg width="55" height="38" viewBox="0 0 55 38" fill="none" xmlns="http://www.w3.org/2000/svg">
<g clip-path="url(#clip0_512_1668)" filter="url(#filter0_ddii_512_1668)">
<path d="M35.4195 2.82728C30.3774 2.1962 21.3469 3.24475 15.9643 8.22538C11.3599 12.4778 19.223 15.7691 24.5408 12.8953C26.308 11.9342 26.9079 10.6332 33.0525 12.1283C39.1971 13.6235 42.8774 11.2448 42.6828 8.16713C42.4721 5.08943 39.116 3.2933 35.4195 2.82728Z" fill="#847090"/>
<path d="M47.3521 11.5651C46.3847 11.5651 45.4568 11.378 44.7727 11.0448C44.0886 10.7116 43.7043 10.2596 43.7043 9.78843C43.7043 9.55511 43.7986 9.32407 43.982 9.10851C44.1653 8.89295 44.434 8.69709 44.7727 8.5321C45.1114 8.36712 45.5136 8.23625 45.9562 8.14696C46.3987 8.05767 46.8731 8.01172 47.3521 8.01172C47.8312 8.01172 48.3055 8.05767 48.7481 8.14696C49.1907 8.23625 49.5928 8.36712 49.9316 8.5321C50.2703 8.69709 50.539 8.89295 50.7223 9.10851C50.9056 9.32407 51 9.55511 51 9.78843C51 10.2596 50.6157 10.7116 49.9316 11.0448C49.2475 11.378 48.3196 11.5651 47.3521 11.5651Z" fill="#847090"/>
<path d="M46.7933 7.45428C46.489 7.51643 46.171 7.54873 45.8576 7.54934C45.5441 7.54996 45.2412 7.51887 44.9663 7.45785C44.6913 7.39684 44.4497 7.3071 44.2551 7.19375C44.0606 7.0804 43.917 6.94566 43.8324 6.79722C43.6617 6.49745 43.7421 6.1601 44.0559 5.85938C44.3698 5.55866 44.8913 5.3192 45.5059 5.19369C46.1204 5.06818 46.7776 5.0669 47.3329 5.19012C47.8881 5.31335 48.296 5.55098 48.4667 5.85075C48.6374 6.15053 48.557 6.48788 48.2432 6.7886C47.9294 7.08932 47.4078 7.32877 46.7933 7.45428Z" fill="#847090"/>
<path d="M44.5097 5.04265C44.2556 5.11751 43.984 5.16731 43.7104 5.1892C43.4368 5.21108 43.1666 5.20463 42.9151 5.1702C42.6637 5.13577 42.436 5.07404 42.2449 4.98854C42.0539 4.90304 41.9033 4.79544 41.8018 4.67188C41.7003 4.54832 41.6498 4.41123 41.6533 4.26843C41.6567 4.12563 41.714 3.97991 41.8219 3.83961C41.9298 3.6993 42.0861 3.56715 42.282 3.4507C42.4779 3.33425 42.7095 3.23578 42.9636 3.16092C43.2177 3.08605 43.4893 3.03625 43.7629 3.01437C44.0365 2.99248 44.3067 2.99894 44.5582 3.03337C44.8096 3.0678 45.0373 3.12953 45.2284 3.21503C45.4194 3.30053 45.57 3.40813 45.6715 3.53169C45.773 3.65524 45.8235 3.79234 45.82 3.93514C45.8166 4.07794 45.7593 4.22365 45.6514 4.36396C45.5435 4.50426 45.3872 4.63641 45.1913 4.75286C44.9954 4.86931 44.7638 4.96778 44.5097 5.04265Z" fill="#847090"/>
<path d="M41.5162 3.17614C41.1184 3.37691 40.6278 3.49202 40.1525 3.49615C39.6772 3.50028 39.2561 3.39308 38.9818 3.19815C38.7075 3.00321 38.6024 2.7365 38.6898 2.45669C38.7772 2.17688 39.0497 1.90689 39.4476 1.70612C39.8455 1.50534 40.336 1.39023 40.8113 1.3861C41.2866 1.38198 41.7077 1.48917 41.9821 1.68411C42.2564 1.87904 42.3614 2.14576 42.274 2.42557C42.1867 2.70537 41.9141 2.97536 41.5162 3.17614Z" fill="#847090"/>
<path d="M37.9688 1.9523C37.8237 2.06724 37.6493 2.16713 37.4555 2.24626C37.2617 2.32539 37.0523 2.38221 36.8392 2.41348C36.6261 2.44475 36.4136 2.44985 36.2137 2.4285C36.0138 2.40715 35.8305 2.35976 35.6743 2.28905C35.3587 2.14622 35.1724 1.91703 35.1563 1.6519C35.1403 1.38676 35.2959 1.1074 35.5888 0.875264C35.8818 0.64313 36.2881 0.47724 36.7184 0.414088C37.1487 0.350936 37.5677 0.395694 37.8833 0.538518C38.0396 0.609237 38.1658 0.701904 38.2546 0.811226C38.3435 0.920548 38.3933 1.04438 38.4013 1.17567C38.4092 1.30695 38.3751 1.4431 38.3009 1.57636C38.2267 1.70961 38.1138 1.83736 37.9688 1.9523Z" fill="#847090"/>
<path d="M25.0597 27.1672C20.0175 27.7983 10.987 26.7497 5.60443 21.7691C1.00002 17.5166 8.86318 14.2254 14.181 17.0992C15.9481 18.0603 16.548 19.3613 22.6926 17.8662C28.8372 16.371 32.5175 18.7497 32.323 21.8274C32.1122 24.9051 28.7562 26.7109 25.0597 27.1672Z" fill="#847090"/>
<path d="M36.9923 21.9827C36.0248 21.9827 35.097 21.7956 34.4129 21.4624C33.7287 21.1292 33.3444 20.6772 33.3444 20.206C33.3444 19.7348 33.7287 19.2829 34.4129 18.9497C35.097 18.6165 36.0248 18.4293 36.9923 18.4293C37.9597 18.4293 38.8876 18.6165 39.5717 18.9497C40.2558 19.2829 40.6401 19.7348 40.6401 20.206C40.6401 20.6772 40.2558 21.1292 39.5717 21.4624C38.8876 21.7956 37.9597 21.9827 36.9923 21.9827Z" fill="#847090"/>
<path d="M36.4237 22.5365C37.0382 22.662 37.5598 22.9015 37.8736 23.2022C38.1874 23.5029 38.2678 23.8403 38.0971 24.14C37.9264 24.4398 37.5185 24.6774 36.9632 24.8007C36.408 24.9239 35.7508 24.9226 35.1362 24.7971C34.5217 24.6716 34.0001 24.4321 33.6863 24.1314C33.3725 23.8307 33.2921 23.4933 33.4628 23.1936C33.6335 22.8938 34.0414 22.6562 34.5967 22.5329C35.1519 22.4097 35.8091 22.411 36.4237 22.5365Z" fill="#847090"/>
<path d="M34.1501 24.9526C34.6633 25.1038 35.074 25.348 35.2919 25.6313C35.5097 25.9147 35.517 26.2141 35.3119 26.4636C35.2104 26.5872 35.0598 26.6948 34.8688 26.7803C34.6778 26.8658 34.45 26.9275 34.1986 26.9619C33.9471 26.9964 33.6769 27.0028 33.4033 26.9809C33.1297 26.959 32.8581 26.9092 32.604 26.8344C32.3499 26.7595 32.1183 26.661 31.9224 26.5446C31.7265 26.4281 31.5702 26.296 31.4623 26.1557C31.3544 26.0154 31.2971 25.8697 31.2937 25.7269C31.2902 25.5841 31.3407 25.447 31.4422 25.3234C31.6473 25.0739 32.0477 24.8946 32.5556 24.8251C33.0634 24.7556 33.637 24.8014 34.1501 24.9526Z" fill="#847090"/>
<path d="M31.1566 26.8281C31.5545 27.0289 31.8271 27.2989 31.9145 27.5787C32.0018 27.8585 31.8968 28.1252 31.6225 28.3202C31.3482 28.5151 30.927 28.6223 30.4517 28.6182C29.9764 28.614 29.4859 28.4989 29.088 28.2982C28.6902 28.0974 28.4176 27.8274 28.3302 27.5476C28.2429 27.2678 28.3479 27.0011 28.6222 26.8061C28.8965 26.6112 29.3176 26.504 29.7929 26.5081C30.2682 26.5123 30.7588 26.6274 31.1566 26.8281Z" fill="#847090"/>
<path d="M27.6161 28.0476C27.7611 28.1626 27.874 28.2903 27.9482 28.4236C28.0224 28.5568 28.0565 28.693 28.0486 28.8243C28.0406 28.9555 27.9908 29.0794 27.9019 29.1887C27.8131 29.298 27.6869 29.3907 27.5306 29.4614C27.215 29.6042 26.796 29.649 26.3657 29.5858C25.9354 29.5227 25.5291 29.3568 25.2361 29.1247C24.9432 28.8925 24.7876 28.6132 24.8036 28.348C24.8197 28.0829 25.006 27.8537 25.3216 27.7109C25.4778 27.6402 25.6611 27.5928 25.861 27.5714C26.0609 27.5501 26.2735 27.5552 26.4865 27.5864C26.6996 27.6177 26.909 27.6745 27.1028 27.7537C27.2966 27.8328 27.471 27.9327 27.6161 28.0476Z" fill="#847090"/>
</g>
<defs>
<filter id="filter0_ddii_512_1668" x="-3" y="-4" width="58" height="42" filterUnits="userSpaceOnUse" color-interpolation-filters="sRGB">
<feFlood flood-opacity="0" result="BackgroundImageFix"/>
<feColorMatrix in="SourceAlpha" type="matrix" values="0 0 0 0 0 0 0 0 0 0 0 0 0 0 0 0 0 0 127 0" result="hardAlpha"/>
<feOffset dy="4"/>
<feGaussianBlur stdDeviation="2"/>
<feComposite in2="hardAlpha" operator="out"/>
<feColorMatrix type="matrix" values="0 0 0 0 0 0 0 0 0 0 0 0 0 0 0 0 0 0 0.25 0"/>
<feBlend mode="normal" in2="BackgroundImageFix" result="effect1_dropShadow_512_1668"/>
<feColorMatrix in="SourceAlpha" type="matrix" values="0 0 0 0 0 0 0 0 0 0 0 0 0 0 0 0 0 0 127 0" result="hardAlpha"/>
<feOffset dy="4"/>
<feGaussianBlur stdDeviation="2"/>
<feComposite in2="hardAlpha" operator="out"/>
<feColorMatrix type="matrix" values="0 0 0 0 0 0 0 0 0 0 0 0 0 0 0 0 0 0 0.25 0"/>
<feBlend mode="normal" in2="effect1_dropShadow_512_1668" result="effect2_dropShadow_512_1668"/>
<feBlend mode="normal" in="SourceGraphic" in2="effect2_dropShadow_512_1668" result="shape"/>
<feColorMatrix in="SourceAlpha" type="matrix" values="0 0 0 0 0 0 0 0 0 0 0 0 0 0 0 0 0 0 127 0" result="hardAlpha"/>
<feOffset dy="4"/>
<feGaussianBlur stdDeviation="2"/>
<feComposite in2="hardAlpha" operator="arithmetic" k2="-1" k3="1"/>
<feColorMatrix type="matrix" values="0 0 0 0 0 0 0 0 0 0 0 0 0 0 0 0 0 0 0.25 0"/>
<feBlend mode="normal" in2="shape" result="effect3_innerShadow_512_1668"/>
<feColorMatrix in="SourceAlpha" type="matrix" values="0 0 0 0 0 0 0 0 0 0 0 0 0 0 0 0 0 0 127 0" result="hardAlpha"/>
<feOffset dy="4"/>
<feGaussianBlur stdDeviation="2"/>
<feComposite in2="hardAlpha" operator="arithmetic" k2="-1" k3="1"/>
<feColorMatrix type="matrix" values="0 0 0 0 0 0 0 0 0 0 0 0 0 0 0 0 0 0 0.25 0"/>
<feBlend mode="normal" in2="effect3_innerShadow_512_1668" result="effect4_innerShadow_512_1668"/>
</filter>
<clipPath id="clip0_512_1668">
<rect width="30" height="50" fill="white" transform="matrix(0 1 -1 0 51 0)"/>
</clipPath>
</defs>
</svg>
