<svg width="30" height="30" viewBox="0 0 30 30" fill="none" xmlns="http://www.w3.org/2000/svg">
<path d="M14.7143 3.69043C11.7875 3.69043 8.98049 4.85312 6.91089 6.92272C4.84129 8.99231 3.6786 11.7993 3.6786 14.7261V22.0833C3.6786 23.0589 4.06617 23.9946 4.75603 24.6844C5.4459 25.3743 6.38156 25.7619 7.35718 25.7619H9.05177C9.50729 25.7618 9.95381 25.635 10.3413 25.3954C10.7287 25.1559 11.0418 24.8132 11.2454 24.4057L11.46 23.9765C11.0634 23.6996 10.6924 23.3878 10.3515 23.0446C9.00395 21.6885 7.97027 19.6971 7.97027 17.1785C7.97027 16.2773 8.12232 15.3809 8.39821 14.5336C8.52083 14.1572 8.86049 14.113 9.19646 14.113C11.2687 14.113 13.1019 13.0843 14.2128 11.5074C14.2694 11.4269 14.3445 11.3613 14.4318 11.316C14.5191 11.2706 14.616 11.247 14.7143 11.247C14.8127 11.247 14.9096 11.2706 14.9969 11.316C15.0842 11.3613 15.1593 11.4269 15.2158 11.5074C15.7816 12.3123 16.5327 12.9693 17.4058 13.4228C18.2789 13.8764 19.2483 14.1131 20.2322 14.113C20.5682 14.113 20.909 14.1572 21.0304 14.5336C21.3106 15.3874 21.455 16.2799 21.4584 17.1785C21.4584 19.6983 20.4247 21.6885 19.0771 23.0446C18.7276 23.3965 18.3537 23.708 17.9686 23.9765L18.1832 24.4057C18.3868 24.8132 18.6999 25.1559 19.0874 25.3954C19.4748 25.635 19.9213 25.7618 20.3769 25.7619H22.0715C23.0471 25.7619 23.9827 25.3743 24.6726 24.6844C25.3625 23.9946 25.75 23.0589 25.75 22.0833V14.7261C25.75 11.7993 24.5873 8.99231 22.5177 6.92272C20.4481 4.85312 17.6412 3.69043 14.7143 3.69043Z" fill="#4A4947"/>
</svg>
