<svg width="50" height="50" viewBox="0 0 50 50" fill="none" xmlns="http://www.w3.org/2000/svg">
<path d="M18.1187 6.77075H31.8813C32.2563 6.77075 32.5792 6.77075 32.8708 6.80617C33.916 6.93635 34.8869 7.41476 35.627 8.16426C36.367 8.91375 36.8331 9.89064 36.95 10.9374H38.6292C39.0708 10.9333 40.0396 10.9249 40.8396 11.4603C41.875 12.1499 42.1875 13.3353 42.1875 14.5833C42.1875 20.2624 39.1604 24.0541 35.2958 26.1603C33.1396 30.0853 29.1562 32.8124 25 32.8124C21.8354 32.8124 18.8333 31.0999 16.6729 28.7312C15.9551 27.948 15.3249 27.0887 14.7937 26.1687C10.9312 24.0728 7.8125 20.2853 7.8125 14.5833C7.8125 13.3333 8.125 12.1499 9.15833 11.4603C9.96042 10.9249 10.9292 10.9333 11.3708 10.9374H13.05L13.0563 10.8791C13.1851 9.84375 13.6556 8.88098 14.3933 8.14324C15.1311 7.40551 16.0938 6.93498 17.1292 6.80617C17.4208 6.77075 17.7437 6.77075 18.1187 6.77075ZM16.1458 12.4999V12.5062L16.125 19.7916V19.7937C16.125 21.2958 16.5542 22.8312 17.2979 24.2374L17.3271 24.2895C17.775 25.127 18.3354 25.9145 18.9833 26.6228C20.7375 28.5478 22.9583 29.6874 25.0021 29.6874C27.9646 29.6874 31.0875 27.5458 32.7104 24.3874C33.4477 22.9675 33.8335 21.3915 33.8354 19.7916L33.8312 19.7874L33.8562 11.952C33.8562 11.4478 33.8521 11.3374 33.8438 11.2645C33.8006 10.9198 33.6438 10.5994 33.3982 10.3538C33.1526 10.1082 32.8322 9.95141 32.4875 9.90825C32.2586 9.89463 32.0292 9.89046 31.8 9.89575H18.2021C17.6958 9.89575 17.5875 9.89784 17.5146 9.90825C17.1699 9.95141 16.8495 10.1082 16.6039 10.3538C16.3583 10.5994 16.2015 10.9198 16.1583 11.2645C16.1447 11.4934 16.1405 11.7228 16.1458 11.952V12.4999ZM36.975 14.0624L36.9562 19.7916V19.7937M36.9083 20.9166C38.2375 19.3166 39.0646 17.2291 39.0646 14.5833C39.0646 14.3374 39.0437 14.1749 39.025 14.0728C38.8648 14.0632 38.7042 14.0597 38.5437 14.0624H36.975M13.0417 20.7958C13.0102 20.462 12.9949 20.1268 12.9958 19.7916V19.7874L13.0146 14.0624H11.4583C11.2312 14.0624 11.0875 14.0624 10.9771 14.0728C10.9478 14.2413 10.9345 14.4122 10.9375 14.5833C10.9375 17.1603 11.7458 19.2083 13.0417 20.7958ZM25 33.8541C25.4144 33.8541 25.8118 34.0187 26.1049 34.3117C26.3979 34.6048 26.5625 35.0022 26.5625 35.4166V40.1041H33.3333C33.7477 40.1041 34.1452 40.2687 34.4382 40.5617C34.7312 40.8548 34.8958 41.2522 34.8958 41.6666C34.8958 42.081 34.7312 42.4784 34.4382 42.7714C34.1452 43.0645 33.7477 43.2291 33.3333 43.2291H16.6667C16.2523 43.2291 15.8548 43.0645 15.5618 42.7714C15.2688 42.4784 15.1042 42.081 15.1042 41.6666C15.1042 41.2522 15.2688 40.8548 15.5618 40.5617C15.8548 40.2687 16.2523 40.1041 16.6667 40.1041H23.4375V35.4166C23.4375 35.0022 23.6021 34.6048 23.8951 34.3117C24.1882 34.0187 24.5856 33.8541 25 33.8541Z" fill="#4A4947"/>
<path d="M24.5208 13.6563C24.5609 13.5624 24.6276 13.4822 24.7128 13.4259C24.798 13.3696 24.8979 13.3396 25 13.3396C25.1021 13.3396 25.202 13.3696 25.2872 13.4259C25.3724 13.4822 25.4391 13.5624 25.4792 13.6563L26.5312 16.1813C26.568 16.2694 26.6282 16.3458 26.7053 16.402C26.7825 16.4582 26.8736 16.4921 26.9687 16.5001L29.6958 16.7188C29.7984 16.7269 29.8963 16.7653 29.9771 16.829C30.0579 16.8927 30.1181 16.9789 30.1499 17.0767C30.1818 17.1745 30.184 17.2796 30.1562 17.3787C30.1284 17.4778 30.0719 17.5664 29.9937 17.6334L27.9167 19.4126C27.8441 19.475 27.7901 19.5563 27.7607 19.6475C27.7313 19.7386 27.7276 19.8361 27.75 19.9292L28.3833 22.5876C28.4077 22.6879 28.4018 22.7932 28.3662 22.8901C28.3307 22.9871 28.2671 23.0712 28.1836 23.132C28.1001 23.1927 28.0004 23.2272 27.8973 23.2312C27.7941 23.2352 27.6921 23.2084 27.6042 23.1542L25.2708 21.7292C25.1892 21.6795 25.0955 21.6533 25 21.6533C24.9045 21.6533 24.8108 21.6795 24.7292 21.7292L22.3958 23.1542C22.3079 23.2084 22.2059 23.2352 22.1027 23.2312C21.9995 23.2272 21.8999 23.1927 21.8164 23.132C21.7329 23.0712 21.6693 22.9871 21.6337 22.8901C21.5982 22.7932 21.5922 22.6879 21.6167 22.5876L22.2521 19.9292C22.2745 19.8361 22.2708 19.7386 22.2414 19.6475C22.212 19.5563 22.158 19.475 22.0854 19.4126L20.0062 17.6334C19.9274 17.5666 19.8702 17.4778 19.842 17.3784C19.8138 17.279 19.8158 17.1734 19.8477 17.0751C19.8796 16.9768 19.9401 16.8903 20.0214 16.8265C20.1027 16.7626 20.2011 16.7244 20.3042 16.7167L23.0292 16.5001C23.1247 16.4925 23.2162 16.4587 23.2938 16.4025C23.3713 16.3463 23.4319 16.2697 23.4687 16.1813L24.5208 13.6563Z" fill="#4A4947"/>
</svg>
