<svg width="30" height="30" viewBox="0 0 30 30" fill="none" xmlns="http://www.w3.org/2000/svg">
<path d="M14.7143 1.67139C13.2716 1.67139 11.8289 1.89842 10.7369 2.32548C9.65628 2.74737 8.96654 3.33996 8.78836 4.01303L7.97793 13.7417C9.69651 14.4889 12.2083 14.8913 14.7143 14.8913C17.2203 14.8913 19.7321 14.4889 21.4507 13.7417L20.6403 4.01303C20.4621 3.33996 19.7723 2.74737 18.6918 2.32548C17.5997 1.89842 16.157 1.67139 14.7143 1.67139ZM10.5184 3.91302H11.553V13.1094H10.5184V3.91302ZM7.55259 6.3903C6.85711 7.26971 6.32832 8.32155 6.01794 9.55732C4.24418 16.6558 4.1982 22.0127 4.19647 28.2261H25.2327C25.2327 22.0127 25.181 16.6558 23.4107 9.55732C23.1003 8.32155 22.5658 7.26396 21.876 6.3903L22.5888 14.9257V14.9487C22.5888 15.581 22.2554 16.1385 21.7783 16.5466C21.2955 16.9604 20.669 17.2651 19.9333 17.5065C18.4734 17.995 16.5996 18.225 14.7143 18.225C12.829 18.225 10.9553 17.995 9.49534 17.5065C8.75962 17.2651 8.13312 16.9604 7.65031 16.5466C7.17324 16.1385 6.83987 15.581 6.83987 14.9487V14.9257L7.55259 6.3903ZM7.88596 14.828L7.87447 14.9602C7.88022 15.2419 8.00667 15.489 8.32854 15.7649C8.65042 16.0408 9.17346 16.311 9.81721 16.5294C11.1162 16.9604 12.921 17.1904 14.7143 17.1904C16.5076 17.1904 18.3124 16.9604 19.6114 16.5294C20.2552 16.311 20.7782 16.0408 21.1001 15.7649C21.422 15.489 21.5484 15.2419 21.5542 14.9602L21.5427 14.828C19.6516 15.5752 17.1859 15.9259 14.7143 15.9259C12.2428 15.9259 9.77698 15.5752 7.88596 14.828ZM9.36314 21.8173C12.967 23.0243 16.5134 22.9899 20.0712 21.8173L20.3931 22.7944C16.6513 24.036 12.8405 24.0704 9.02977 22.7944L9.36314 21.8173ZM10.2483 25.4844C13.3004 26.3063 16.2605 26.2431 19.1803 25.4844L19.4447 26.4845C16.3639 27.2892 13.2084 27.3524 9.9839 26.4845L10.2483 25.4844Z" fill="#4A4947"/>
</svg>
