<svg width="30" height="31" viewBox="0 0 30 31" fill="none" xmlns="http://www.w3.org/2000/svg">
<path d="M8.67435 22.8875V9.46328C8.67426 9.17798 8.76895 8.90073 8.94352 8.67508C9.1181 8.44942 9.36268 8.28814 9.63886 8.21657C9.91504 8.145 10.2072 8.16719 10.4694 8.27966C10.7316 8.39212 10.949 8.58849 11.0875 8.83793L18.5231 22.2229C18.6615 22.4724 18.879 22.6688 19.1412 22.7812C19.4034 22.8937 19.6955 22.9159 19.9717 22.8443C20.2479 22.7727 20.4924 22.6115 20.667 22.3858C20.8416 22.1601 20.9363 21.8829 20.9362 21.5976V8.17334M6.22198 13.0781H23.3885M6.22198 17.9828H23.3885" stroke="#4A4947" stroke-width="2.45237" stroke-linecap="round" stroke-linejoin="round"/>
</svg>
