<svg 
          width="30" 
          height="30" fill="none" 
          xmlns="http://www.w3.org/2000/svg">
          <path d="M 15.01881642775102 16.593253447971605 L 4.782990867441351 29.339268443242528 C 4.0755146741867065 30.2202431369967 2.9315105080604553 30.2202431369967 2.2315606745806607 29.339268443242528 L 0.5306071449409832 27.22117975015104 C -0.17686904831366101 26.34020505639687 -0.17686904831366101 24.91565055203633 0.5306071449409832 24.044047854923086 L 7.786000858653675 15.009373856305988 L 0.5306071449409832 5.974695280051825 C -0.17686904831366101 5.0937205862976525 -0.17686904831366101 3.669166368039426 0.5306071449409832 2.7975636709261833 L 2.224034070968628 0.6607310560784192 C 2.931510264223272 -0.2202436376757536 4.075514267791401 -0.2202436376757536 4.775464101271195 0.6607310560784192 L 15.011289336464621 13.406748840846927 C 15.726291889494115 14.2877235346011 15.726292621005664 15.712278754217433 15.01881642775102 16.593253447971605 Z M 29.469392082907934 13.406748840846927 L 19.233567497946996 0.6607310560784192 C 18.52609130469235 -0.2202436376757536 17.382086976007983 -0.2202436376757536 16.682137142528187 0.6607310560784192 L 14.981184872713955 2.77881910543969 C 14.273708679459311 3.6597937991938627 14.273708679459311 5.084348875759039 14.981184872713955 5.955951572872282 L 22.23658041520552 14.990628432512546 L 14.981184872713955 24.025304719948174 C 14.273708679459311 24.906279413702347 14.273708679459311 26.330836206881425 14.981184872713955 27.20243890399467 L 16.682137142528187 29.320523019449084 C 17.389613335782833 30.201497713203256 18.5336176644672 30.201497713203256 19.233567497946996 29.320523019449084 L 29.469392082907934 16.57450802417816 C 30.17686827616258 15.712277466757007 30.17686827616258 14.2877235346011 29.469392082907934 13.406748840846927 Z" fill="rgb(74.0000031888485,73.00000324845314,71.00000336766243)"/>
        </svg>