<svg width="30" height="30" viewBox="0 0 30 30" fill="none" xmlns="http://www.w3.org/2000/svg">
<path id="Next Page" d="M15.0188 16.5933L4.78299 29.3393C4.07551 30.2202 2.93151 30.2202 2.23156 29.3393L0.530607 27.2212C-0.176869 26.3402 -0.176869 24.9156 0.530607 24.044L7.786 15.0094L0.530607 5.9747C-0.176869 5.09372 -0.176869 3.66917 0.530607 2.79756L2.22403 0.660731C2.93151 -0.220244 4.07551 -0.220244 4.77546 0.660731L15.0113 13.4067C15.7263 14.2877 15.7263 15.7123 15.0188 16.5933ZM29.4694 13.4067L19.2336 0.660731C18.5261 -0.220244 17.3821 -0.220244 16.6821 0.660731L14.9812 2.77882C14.2737 3.65979 14.2737 5.08435 14.9812 5.95595L22.2366 14.9906L14.9812 24.0253C14.2737 24.9063 14.2737 26.3308 14.9812 27.2024L16.6821 29.3205C17.3896 30.2015 18.5336 30.2015 19.2336 29.3205L29.4694 16.5745C30.1769 15.7123 30.1769 14.2877 29.4694 13.4067Z" fill="#4A4947"/>
</svg>
