<svg width="68" height="120" viewBox="0 0 68 120" fill="none" xmlns="http://www.w3.org/2000/svg">
<ellipse cx="34" cy="40.1032" rx="34" ry="40.1032" fill="#D9D9D9"/>
<path d="M2.11364 110.917V93.4629H8.01136C9.38068 93.4629 10.5 93.7101 11.3693 94.2044C12.2443 94.693 12.892 95.3549 13.3125 96.1902C13.733 97.0254 13.9432 97.9572 13.9432 98.9856C13.9432 100.014 13.733 100.949 13.3125 101.79C12.8977 102.631 12.2557 103.301 11.3864 103.801C10.517 104.295 9.40341 104.542 8.04545 104.542H3.81818V102.667H7.97727C8.91477 102.667 9.66761 102.506 10.2358 102.182C10.804 101.858 11.2159 101.42 11.4716 100.869C11.733 100.312 11.8636 99.6845 11.8636 98.9856C11.8636 98.2868 11.733 97.6618 11.4716 97.1106C11.2159 96.5595 10.8011 96.1277 10.2273 95.8152C9.65341 95.497 8.89205 95.3379 7.94318 95.3379H4.22727V110.917H2.11364ZM19.0866 103.042V110.917H17.0753V93.4629H19.0866V99.872H19.2571C19.5639 99.1959 20.0241 98.6589 20.6378 98.2612C21.2571 97.8578 22.081 97.6561 23.1094 97.6561C24.0014 97.6561 24.7827 97.8351 25.4531 98.193C26.1236 98.5453 26.6435 99.0879 27.0128 99.8209C27.3878 100.548 27.5753 101.474 27.5753 102.599V110.917H25.5639V102.736C25.5639 101.696 25.294 100.892 24.7543 100.324C24.2202 99.7498 23.4787 99.4629 22.5298 99.4629C21.8707 99.4629 21.2798 99.6021 20.7571 99.8805C20.2401 100.159 19.831 100.565 19.5298 101.099C19.2344 101.633 19.0866 102.281 19.0866 103.042ZM36.5732 111.19C35.3913 111.19 34.3544 110.909 33.4624 110.346C32.576 109.784 31.8828 108.997 31.3828 107.986C30.8885 106.974 30.6413 105.792 30.6413 104.44C30.6413 103.077 30.8885 101.886 31.3828 100.869C31.8828 99.8521 32.576 99.0623 33.4624 98.4998C34.3544 97.9373 35.3913 97.6561 36.5732 97.6561C37.755 97.6561 38.7891 97.9373 39.6754 98.4998C40.5675 99.0623 41.2607 99.8521 41.755 100.869C42.255 101.886 42.505 103.077 42.505 104.44C42.505 105.792 42.255 106.974 41.755 107.986C41.2607 108.997 40.5675 109.784 39.6754 110.346C38.7891 110.909 37.755 111.19 36.5732 111.19ZM36.5732 109.383C37.4709 109.383 38.2095 109.153 38.7891 108.693C39.3686 108.233 39.7976 107.628 40.076 106.878C40.3544 106.128 40.4936 105.315 40.4936 104.44C40.4936 103.565 40.3544 102.75 40.076 101.994C39.7976 101.238 39.3686 100.628 38.7891 100.162C38.2095 99.6959 37.4709 99.4629 36.5732 99.4629C35.6754 99.4629 34.9368 99.6959 34.3572 100.162C33.7777 100.628 33.3487 101.238 33.0703 101.994C32.7919 102.75 32.6527 103.565 32.6527 104.44C32.6527 105.315 32.7919 106.128 33.0703 106.878C33.3487 107.628 33.7777 108.233 34.3572 108.693C34.9368 109.153 35.6754 109.383 36.5732 109.383ZM51.2685 97.8265V99.5311H44.4844V97.8265H51.2685ZM46.4616 94.6902H48.473V107.167C48.473 107.736 48.5554 108.162 48.7202 108.446C48.8906 108.724 49.1065 108.912 49.3679 109.008C49.6349 109.099 49.9162 109.145 50.2116 109.145C50.4332 109.145 50.6151 109.133 50.7571 109.111C50.8991 109.082 51.0128 109.059 51.098 109.042L51.5071 110.849C51.3707 110.9 51.1804 110.952 50.9361 111.003C50.6918 111.059 50.3821 111.088 50.0071 111.088C49.4389 111.088 48.8821 110.966 48.3366 110.721C47.7969 110.477 47.348 110.105 46.9901 109.605C46.6378 109.105 46.4616 108.474 46.4616 107.713V94.6902ZM59.4716 111.19C58.2898 111.19 57.2528 110.909 56.3608 110.346C55.4744 109.784 54.7812 108.997 54.2812 107.986C53.7869 106.974 53.5398 105.792 53.5398 104.44C53.5398 103.077 53.7869 101.886 54.2812 100.869C54.7812 99.8521 55.4744 99.0623 56.3608 98.4998C57.2528 97.9373 58.2898 97.6561 59.4716 97.6561C60.6534 97.6561 61.6875 97.9373 62.5739 98.4998C63.4659 99.0623 64.1591 99.8521 64.6534 100.869C65.1534 101.886 65.4034 103.077 65.4034 104.44C65.4034 105.792 65.1534 106.974 64.6534 107.986C64.1591 108.997 63.4659 109.784 62.5739 110.346C61.6875 110.909 60.6534 111.19 59.4716 111.19ZM59.4716 109.383C60.3693 109.383 61.108 109.153 61.6875 108.693C62.267 108.233 62.696 107.628 62.9744 106.878C63.2528 106.128 63.392 105.315 63.392 104.44C63.392 103.565 63.2528 102.75 62.9744 101.994C62.696 101.238 62.267 100.628 61.6875 100.162C61.108 99.6959 60.3693 99.4629 59.4716 99.4629C58.5739 99.4629 57.8352 99.6959 57.2557 100.162C56.6761 100.628 56.2472 101.238 55.9688 101.994C55.6903 102.75 55.5511 103.565 55.5511 104.44C55.5511 105.315 55.6903 106.128 55.9688 106.878C56.2472 107.628 56.6761 108.233 57.2557 108.693C57.8352 109.153 58.5739 109.383 59.4716 109.383Z" fill="black"/>
<path d="M41.6693 36.9975H35.9174V30.2131C35.9174 29.3806 35.345 28.7054 34.6392 28.7054H33.361C32.6552 28.7054 32.0828 29.3806 32.0828 30.2131V36.9975H26.3309C25.6251 36.9975 25.0527 37.6726 25.0527 38.5051V40.0127C25.0527 40.8452 25.6251 41.5204 26.3309 41.5204H32.0828V48.3047C32.0828 49.1372 32.6552 49.8124 33.361 49.8124H34.6392C35.345 49.8124 35.9174 49.1372 35.9174 48.3047V41.5204H41.6693C42.3751 41.5204 42.9475 40.8452 42.9475 40.0127V38.5051C42.9475 37.6726 42.3751 36.9975 41.6693 36.9975Z" fill="#4A4947"/>
</svg>
