<svg width="31" height="30" viewBox="0 0 31 30" fill="none" xmlns="http://www.w3.org/2000/svg">
<path fill-rule="evenodd" clip-rule="evenodd" d="M15.0257 3.67859C16.2312 3.67828 17.4036 4.07274 18.3637 4.80169C19.3239 5.53064 20.0188 6.55395 20.3424 7.71518L20.4062 7.96655L22.6992 7.39392C22.8668 7.35221 23.0413 7.34637 23.2113 7.37679C23.3813 7.4072 23.543 7.47319 23.6857 7.57043C23.8284 7.66768 23.949 7.79397 24.0396 7.94105C24.1301 8.08813 24.1885 8.25268 24.2111 8.42392L24.2221 8.58332V10.8027C24.9137 11.4652 25.4803 12.2469 25.8946 13.1104L26.0638 13.4881H26.6745C26.9748 13.4881 27.2647 13.5984 27.4891 13.7979C27.7135 13.9975 27.8569 14.2725 27.8921 14.5708L27.9006 14.7142V18.3928C27.9007 18.5946 27.8509 18.7933 27.7557 18.9713C27.6605 19.1492 27.5229 19.301 27.355 19.413L27.2226 19.489L25.7904 20.2063C25.2051 21.3413 24.3556 22.319 23.3135 23.0572L22.9959 23.2705V24.5237C22.9959 24.824 22.8856 25.1139 22.686 25.3383C22.4865 25.5628 22.2115 25.7062 21.9132 25.7413L21.7697 25.7499H18.0912C17.7908 25.7498 17.501 25.6396 17.2765 25.44C17.0521 25.2404 16.9087 24.9654 16.8736 24.6672L16.865 24.5237H15.6388C15.6388 24.824 15.5285 25.1139 15.3289 25.3383C15.1294 25.5628 14.8544 25.7062 14.5561 25.7413L14.4126 25.7499H10.7341C10.4337 25.7498 10.1439 25.6396 9.91944 25.44C9.695 25.2404 9.55162 24.9654 9.51648 24.6672L9.5079 24.5237V23.2705C8.62172 22.7046 7.85628 21.969 7.25567 21.1059C6.65507 20.2429 6.23116 19.2695 6.00837 18.242C5.28515 18.0271 4.64548 17.595 4.1761 17.0043C3.70671 16.4137 3.4303 15.6929 3.38434 14.9399L3.37698 14.7142V14.1011C3.37733 13.7886 3.497 13.488 3.71155 13.2608C3.92609 13.0335 4.21931 12.8967 4.53131 12.8784C4.8433 12.8601 5.15051 12.9616 5.39017 13.1622C5.62983 13.3628 5.78385 13.6473 5.82077 13.9577L5.82935 14.1011V14.7142C5.83098 14.8973 5.86777 15.067 5.93971 15.2231C6.12657 14.1191 6.54396 13.0668 7.16468 12.1349C7.78539 11.203 8.59551 10.4123 9.54223 9.81441C9.45523 9.04251 9.53219 8.26093 9.76808 7.52083C10.004 6.78072 10.3935 6.09876 10.9111 5.51956C11.4287 4.94036 12.0628 4.47698 12.7718 4.15974C13.4809 3.84249 14.2489 3.67854 15.0257 3.67859ZM20.5435 13.4881C20.2183 13.4881 19.9065 13.6172 19.6765 13.8472C19.4465 14.0771 19.3174 14.389 19.3174 14.7142C19.3174 15.0394 19.4465 15.3513 19.6765 15.5813C19.9065 15.8112 20.2183 15.9404 20.5435 15.9404C20.8687 15.9404 21.1806 15.8112 21.4106 15.5813C21.6405 15.3513 21.7697 15.0394 21.7697 14.7142C21.7697 14.389 21.6405 14.0771 21.4106 13.8472C21.1806 13.6172 20.8687 13.4881 20.5435 13.4881ZM15.0257 6.13096C14.283 6.13095 13.5656 6.40059 13.0067 6.88977C12.4478 7.37894 12.0856 8.05438 11.9872 8.79055C12.5814 8.65234 13.1895 8.58281 13.7995 8.58332H17.9404L18.0262 8.56248C17.8808 7.87454 17.5033 7.2575 16.957 6.8148C16.4107 6.3721 15.7289 6.13066 15.0257 6.13096Z" fill="#4A4947"/>
</svg>
