<svg width="31" height="31" viewBox="0 0 31 31" fill="none" xmlns="http://www.w3.org/2000/svg">
<path d="M20.47 5.24602C19.2438 4.01983 17.6498 3.40674 16.1783 3.40674C14.7069 3.40674 12.9902 4.01983 11.8867 5.24602L4.77477 12.1127C2.32239 14.5651 2.32239 18.3663 4.77477 20.8186C7.22715 23.271 11.0283 23.271 13.4807 20.8186L20.47 13.8294C22.7998 11.4996 22.7998 7.57579 20.47 5.24602ZM18.7533 12.1127L15.32 15.546L10.9057 11.2544L5.51049 16.6496C5.51049 15.6686 5.75572 14.5651 6.61406 13.8294L13.6033 6.84007C14.2164 6.22698 15.1974 5.85912 16.0557 5.85912C16.9141 5.85912 17.895 6.22698 18.6307 6.84007C20.1022 8.43412 20.1022 10.6413 18.7533 12.1127ZM24.6391 9.66031C24.6391 10.6413 24.3938 11.4996 24.1486 12.4805C25.3748 13.952 25.3748 16.1591 24.026 17.5079L20.5926 20.9413L18.7533 19.102L15.32 22.5353C13.726 24.1294 11.5188 24.9877 9.43429 24.9877C9.67953 25.3555 9.92477 25.7234 10.2926 26.0913C12.745 28.5436 16.5462 28.5436 18.9986 26.0913L25.9879 19.102C28.4402 16.6496 28.4402 12.8484 25.9879 10.396C25.3748 10.1508 25.0069 9.90555 24.6391 9.66031Z" fill="#4A4947"/>
</svg>
