<svg 
          width="30" 
          height="30" fill="none" 
          xmlns="http://www.w3.org/2000/svg">
          <path d="M 15.018816947937012 16.593253236977464 L 4.7829909324646 29.339269596053413 C 4.075514733791351 30.22024430244727 2.9315105676651 30.22024430244727 2.231560707092285 29.339269596053413 L 0.5306071639060974 27.22117978548557 C -0.17686903476715088 26.340205079091714 -0.17686903476715088 24.915650640529037 0.5306071639060974 24.044047930656937 L 7.786000728607178 15.009374619126294 L 0.5306071639060974 5.974695585549392 C -0.17686903476715088 5.093720879155533 -0.17686903476715088 3.669166440592857 0.5306071639060974 2.797563730720757 L 2.224034070968628 0.6607310595977185 C 2.931510269641876 -0.2202436467961405 4.075514197349548 -0.2202436467961405 4.775464057922363 0.6607310595977185 L 15.011289596557617 13.406749624045665 C 15.726292133331299 14.287724330439524 15.72629314661026 15.712278530583605 15.018816947937012 16.593253236977464 Z M 29.469392776489258 13.406749624045665 L 19.23356819152832 0.6607310595977185 C 18.526091992855072 -0.2202436467961405 17.382086396217346 -0.2202436467961405 16.68213653564453 0.6607310595977185 L 14.981184959411621 2.778819260840051 C 14.273708760738373 3.65979396723391 14.273708760738373 5.0843488826337735 14.981184959411621 5.9559515925058735 L 22.23657989501953 14.990629195571211 L 14.981184959411621 24.025304414450606 C 14.273708760738373 24.906279120844463 14.273708760738373 26.33083737410465 14.981184959411621 27.20244008397675 L 16.68213653564453 29.32052417249833 C 17.38961273431778 30.20149887889219 18.533618330955505 30.20149887889219 19.23356819152832 29.32052417249833 L 29.469392776489258 16.574507813422382 C 30.176868975162506 15.712277219281338 30.176868975162506 14.287724330439524 29.469392776489258 13.406749624045665 Z" fill="rgb(74.0000031888485,73.00000324845314,71.00000336766243)"/>
        </svg>