<svg width="30" height="30" viewBox="0 0 30 30" fill="none" xmlns="http://www.w3.org/2000/svg">
<g clip-path="url(#clip0_294_214)">
<path d="M26.938 5.97089C26.828 5.84484 26.6931 5.74295 26.5417 5.67165C26.3903 5.60035 26.2258 5.56118 26.0586 5.55663C23.461 5.48872 20.174 2.71111 18.0008 1.62112C16.6584 0.949926 15.7722 0.507365 15.1066 0.390783C14.9715 0.370669 14.8342 0.37105 14.6992 0.391915C14.0336 0.508497 13.1474 0.951058 11.8061 1.62226C9.63292 2.71111 6.34597 5.48985 3.74834 5.55663C3.58101 5.56171 3.41651 5.60109 3.26504 5.67235C3.11356 5.74361 2.97834 5.84523 2.86774 5.97089C2.63883 6.23043 2.5206 6.56926 2.53837 6.91487C3.09638 18.2596 7.16545 25.2806 14.3053 29.3609C14.4909 29.4662 14.6969 29.5205 14.9018 29.5205C15.1066 29.5205 15.3126 29.4662 15.4994 29.3609C22.6392 25.2806 26.7071 18.2596 27.2663 6.91487C27.2856 6.56924 27.1676 6.22998 26.938 5.97089ZM14.9029 20.718C13.0846 20.718 11.3409 19.9957 10.0552 18.71C8.76947 17.4243 8.04717 15.6805 8.04717 13.8623C8.04717 12.044 8.76947 10.3002 10.0552 9.01455C11.3409 7.72885 13.0846 7.00655 14.9029 7.00655C16.7211 7.00655 18.4649 7.72885 19.7506 9.01455C21.0363 10.3002 21.7586 12.044 21.7586 13.8623C21.7586 15.6805 21.0363 17.4243 19.7506 18.71C18.4649 19.9957 16.7211 20.718 14.9029 20.718ZM17.7099 9.91092L10.9515 16.6693C10.3631 15.8515 10.0457 14.8698 10.0438 13.8623C10.0459 12.5742 10.5585 11.3395 11.4693 10.4287C12.3801 9.51787 13.6148 9.00526 14.9029 9.00317C15.951 9.00317 16.9142 9.34386 17.7099 9.91092ZM18.8531 11.0552C19.4202 11.8498 19.762 12.8153 19.762 13.8623C19.7599 15.1503 19.2473 16.3851 18.3365 17.2959C17.4257 18.2067 16.191 18.7193 14.9029 18.7214C13.8954 18.7195 12.9137 18.4021 12.0959 17.8136L18.8531 11.0552Z" fill="#4A4947"/>
</g>
<defs>
<clipPath id="clip0_294_214">
<rect width="29.4286" height="29.4286" fill="white" transform="translate(0.188477 0.279785)"/>
</clipPath>
</defs>
</svg>
