<svg width="37" height="52" viewBox="0 0 37 52" fill="none" xmlns="http://www.w3.org/2000/svg">
<g clip-path="url(#clip0_294_191)">
<path d="M25.8039 30.5326L21.9782 26.7069C21.7084 26.4371 21.5735 26.0938 21.5735 25.6769C21.5735 25.26 21.7084 24.9167 21.9782 24.6469C22.2479 24.3771 22.5913 24.2423 23.0082 24.2423C23.4251 24.2423 23.7684 24.3771 24.0382 24.6469L25.3625 25.9712V21.2994C25.3625 20.8825 25.5037 20.5333 25.7862 20.2517C26.0687 19.9702 26.418 19.8289 26.8339 19.828C27.2498 19.827 27.5995 19.9682 27.883 20.2517C28.1665 20.5352 28.3073 20.8845 28.3053 21.2994V25.9712L29.6296 24.6469C29.8994 24.3771 30.2427 24.2423 30.6596 24.2423C31.0765 24.2423 31.4198 24.3771 31.6896 24.6469C31.9594 24.9167 32.0942 25.26 32.0942 25.6769C32.0942 26.0938 31.9594 26.4371 31.6896 26.7069L27.8639 30.5326C27.5696 30.8269 27.2263 30.974 26.8339 30.974C26.4415 30.974 26.0982 30.8269 25.8039 30.5326ZM22.4196 35.9769C22.0027 35.9769 21.6535 35.8356 21.3719 35.5531C21.0904 35.2706 20.9492 34.9214 20.9482 34.5055C20.9472 34.0895 21.0884 33.7403 21.3719 33.4578C21.6554 33.1753 22.0047 33.034 22.4196 33.034H31.2482C31.6651 33.034 32.0148 33.1753 32.2973 33.4578C32.5798 33.7403 32.7206 34.0895 32.7196 34.5055C32.7186 34.9214 32.5774 35.2711 32.2958 35.5546C32.0143 35.8381 31.6651 35.9789 31.2482 35.9769H22.4196ZM9.17674 30.0912C8.36746 30.0912 7.67491 29.8033 7.09909 29.2275C6.52327 28.6516 6.23487 27.9586 6.23389 27.1483V6.54833C6.23389 5.73904 6.52229 5.04649 7.09909 4.47067C7.67589 3.89485 8.36844 3.60645 9.17674 3.60547H18.2628C18.6552 3.60547 19.0294 3.67904 19.3855 3.82618C19.7416 3.97333 20.054 4.18178 20.3228 4.45154L27.4592 11.588C27.729 11.8577 27.9375 12.1707 28.0846 12.5267C28.2317 12.8828 28.3053 13.2566 28.3053 13.648V15.4137C28.3053 15.8306 28.1641 16.1798 27.8815 16.4613C27.599 16.7429 27.2498 16.8841 26.8339 16.8851H20.9482C20.1389 16.8851 19.4463 17.1735 18.8705 17.7503C18.2947 18.3271 18.0063 19.0197 18.0053 19.828V28.6198C18.0053 29.0367 17.8641 29.3864 17.5815 29.6689C17.299 29.9514 16.9498 30.0922 16.5339 30.0912H9.17674ZM20.2125 13.9055H25.3625L18.0053 6.54833V11.6983C18.0053 12.3114 18.2201 12.8328 18.6498 13.2625C19.0795 13.6921 19.6003 13.9065 20.2125 13.9055Z" fill="#4A4947"/>
</g>
<path d="M4.33871 49.0712C3.76583 49.0712 3.25574 48.9731 2.80842 48.7769C2.36111 48.5807 2.00797 48.3139 1.749 47.9765C1.49002 47.6312 1.34484 47.2467 1.31345 46.8229H3.30282C3.32637 47.0505 3.43231 47.2349 3.62065 47.3761C3.809 47.5174 4.0405 47.588 4.31517 47.588C4.56629 47.588 4.75856 47.5409 4.89197 47.4468C5.03323 47.3447 5.10385 47.2153 5.10385 47.0583C5.10385 46.87 5.00576 46.7326 4.80957 46.6463C4.61338 46.5521 4.29555 46.4501 3.85608 46.3403C3.38522 46.2304 2.99284 46.1166 2.67894 45.9989C2.36503 45.8733 2.09429 45.6811 1.86671 45.4221C1.63913 45.1553 1.52534 44.7982 1.52534 44.3509C1.52534 43.9742 1.62736 43.6328 1.8314 43.3268C2.04328 43.0129 2.34934 42.7657 2.74957 42.5852C3.15764 42.4047 3.64027 42.3144 4.19745 42.3144C5.02145 42.3144 5.66888 42.5185 6.13974 42.9265C6.61844 43.3346 6.89311 43.8761 6.96374 44.551H5.10385C5.07246 44.3234 4.97044 44.1429 4.7978 44.0095C4.633 43.8761 4.41326 43.8094 4.1386 43.8094C3.90317 43.8094 3.72267 43.8565 3.59711 43.9507C3.47155 44.037 3.40877 44.1586 3.40877 44.3156C3.40877 44.5039 3.50686 44.6452 3.70305 44.7393C3.90709 44.8335 4.221 44.9277 4.64477 45.0219C5.13132 45.1474 5.52762 45.273 5.83368 45.3985C6.13974 45.5163 6.40656 45.7124 6.63414 45.9871C6.86957 46.2539 6.99121 46.6149 6.99905 47.0701C6.99905 47.4546 6.88919 47.7999 6.66945 48.106C6.45757 48.4042 6.14759 48.6396 5.73951 48.8123C5.33928 48.9849 4.87235 49.0712 4.33871 49.0712ZM7.83032 45.6811C7.83032 45.0062 7.95588 44.4137 8.207 43.9036C8.46598 43.3935 8.81519 43.0011 9.25466 42.7264C9.69413 42.4518 10.1846 42.3144 10.7261 42.3144C11.1891 42.3144 11.5933 42.4086 11.9385 42.5969C12.2917 42.7853 12.5624 43.0325 12.7508 43.3385V42.4086H14.7637V48.9771H12.7508V48.0471C12.5546 48.3532 12.2799 48.6004 11.9268 48.7887C11.5815 48.9771 11.1773 49.0712 10.7143 49.0712C10.1807 49.0712 9.69413 48.9339 9.25466 48.6592C8.81519 48.3767 8.46598 47.9804 8.207 47.4703C7.95588 46.9524 7.83032 46.3559 7.83032 45.6811ZM12.7508 45.6928C12.7508 45.1906 12.6095 44.7943 12.327 44.5039C12.0523 44.2135 11.7149 44.0684 11.3147 44.0684C10.9144 44.0684 10.5731 44.2135 10.2905 44.5039C10.0159 44.7864 9.87855 45.1788 9.87855 45.6811C9.87855 46.1833 10.0159 46.5835 10.2905 46.8817C10.5731 47.1721 10.9144 47.3173 11.3147 47.3173C11.7149 47.3173 12.0523 47.1721 12.327 46.8817C12.6095 46.5914 12.7508 46.1951 12.7508 45.6928ZM19.1746 47.0936L20.5989 42.4086H22.7413L20.4106 48.9771H17.9268L15.5961 42.4086H17.7502L19.1746 47.0936ZM29.7804 45.5869C29.7804 45.7752 29.7686 45.9714 29.745 46.1755H25.1895C25.2209 46.5835 25.3504 46.8974 25.578 47.1172C25.8134 47.3291 26.0998 47.435 26.4373 47.435C26.9395 47.435 27.2887 47.2231 27.4849 46.7993H29.6273C29.5175 47.231 29.3173 47.6194 29.027 47.9647C28.7445 48.31 28.3874 48.5807 27.9558 48.7769C27.5242 48.9731 27.0415 49.0712 26.5079 49.0712C25.8644 49.0712 25.2915 48.9339 24.7893 48.6592C24.287 48.3846 23.8946 47.9922 23.6121 47.4821C23.3296 46.972 23.1884 46.3756 23.1884 45.6928C23.1884 45.0101 23.3257 44.4137 23.6004 43.9036C23.8829 43.3935 24.2753 43.0011 24.7775 42.7264C25.2797 42.4518 25.8565 42.3144 26.5079 42.3144C27.1436 42.3144 27.7086 42.4478 28.203 42.7147C28.6974 42.9815 29.0819 43.3621 29.3566 43.8565C29.6391 44.3509 29.7804 44.9277 29.7804 45.5869ZM27.7204 45.0572C27.7204 44.7119 27.6026 44.4372 27.3672 44.2332C27.1318 44.0291 26.8375 43.9271 26.4844 43.9271C26.1469 43.9271 25.8605 44.0252 25.625 44.2214C25.3975 44.4176 25.2562 44.6962 25.2013 45.0572H27.7204Z" fill="#4A4947"/>
<defs>
<clipPath id="clip0_294_191">
<rect width="35.3143" height="35.3143" fill="white" transform="translate(0.348145 0.662598)"/>
</clipPath>
</defs>
</svg>
