<svg width="30" height="30" viewBox="0 0 30 30" fill="none" xmlns="http://www.w3.org/2000/svg">
<path fill-rule="evenodd" clip-rule="evenodd" d="M17.2537 6.66627C17.2537 4.36627 19.1287 2.50002 21.4387 2.50002C21.9872 2.49854 22.5306 2.60514 23.0379 2.81375C23.5452 3.02235 24.0063 3.32886 24.3951 3.71577C24.7839 4.10267 25.0926 4.56239 25.3036 5.06865C25.5146 5.57491 25.6238 6.11779 25.625 6.66627C25.625 8.96752 23.75 10.8338 21.4387 10.8338C20.8845 10.8342 20.3357 10.7246 19.8242 10.5113C19.3126 10.298 18.8485 9.98527 18.4587 9.59126L12.665 13.5363C12.8261 14.34 12.7469 15.1734 12.4375 15.9325L18.79 20.1075C19.5384 19.4977 20.4746 19.1652 21.44 19.1663C21.9885 19.165 22.5318 19.2717 23.039 19.4805C23.5462 19.6892 24.0073 19.9959 24.396 20.3829C24.7846 20.7699 25.0932 21.2297 25.3041 21.7361C25.515 22.2424 25.624 22.7853 25.625 23.3338C25.625 25.6338 23.75 27.5 21.4387 27.5C20.8904 27.5013 20.3471 27.3946 19.84 27.1859C19.3329 26.9772 18.8718 26.6707 18.4832 26.2838C18.0946 25.8969 17.786 25.4373 17.575 24.9311C17.3641 24.4249 17.2549 23.8821 17.2537 23.3338C17.2528 22.7496 17.3759 22.1718 17.615 21.6388L11.3125 17.5C10.549 18.1633 9.57132 18.5278 8.56 18.5263C8.01152 18.5276 7.46816 18.4208 6.96096 18.2121C6.45376 18.0033 5.99266 17.6966 5.60401 17.3096C5.21537 16.9226 4.90679 16.4628 4.69591 15.9565C4.48503 15.4502 4.37598 14.9072 4.375 14.3588C4.37615 13.8104 4.48532 13.2676 4.69627 12.7614C4.90722 12.2553 5.21583 11.7956 5.60446 11.4087C5.99309 11.0218 6.45413 10.7153 6.96125 10.5066C7.46836 10.2979 8.01163 10.1912 8.56 10.1925C9.89 10.1925 11.0725 10.8088 11.8387 11.7688L17.455 7.94501C17.321 7.53201 17.2531 7.10045 17.2537 6.66627Z" fill="#4A4947"/>
</svg>
