<svg width="46" height="45" viewBox="0 0 46 45" fill="none" xmlns="http://www.w3.org/2000/svg">
<path fill-rule="evenodd" clip-rule="evenodd" d="M21.8319 4.26836C21.8319 5.1761 22.2137 6.04667 22.8934 6.68854C23.5731 7.33041 24.495 7.69101 25.4562 7.69101H33.6207L22.8926 17.8221C22.3862 18.3009 22.0415 18.9107 21.902 19.5744C21.7625 20.2382 21.8344 20.9261 22.1088 21.5512C22.3832 22.1763 22.8476 22.7106 23.4434 23.0866C24.0392 23.4625 24.7396 23.6633 25.4562 23.6634H42.3699C42.8459 23.6634 43.3172 23.5749 43.7569 23.4029C44.1966 23.2309 44.5962 22.9788 44.9327 22.6609C45.2693 22.3431 45.5362 21.9658 45.7184 21.5505C45.9005 21.1353 45.9943 20.6902 45.9943 20.2408C45.9943 19.7913 45.9005 19.3462 45.7184 18.931C45.5362 18.5157 45.2693 18.1384 44.9327 17.8206C44.5962 17.5027 44.1966 17.2506 43.7569 17.0786C43.3172 16.9066 42.8459 16.8181 42.3699 16.8181H34.2054L44.9335 6.68704C45.4399 6.20824 45.7846 5.59844 45.9241 4.9347C46.0637 4.27095 45.9917 3.58305 45.7173 2.95792C45.443 2.33279 44.9785 1.79849 44.3827 1.42253C43.7869 1.04658 43.0865 0.845847 42.3699 0.845703H25.4562C24.495 0.845703 23.5731 1.2063 22.8934 1.84818C22.2137 2.49005 21.8319 3.36061 21.8319 4.26836ZM3.71005 19.0999C2.74881 19.0999 1.82694 18.7393 1.14724 18.0974C0.467545 17.4555 0.0856934 16.585 0.0856934 15.6772C0.0856934 14.7695 0.467545 13.8989 1.14724 13.257C1.82694 12.6152 2.74881 12.2546 3.71005 12.2546H15.7913C16.5076 12.2552 17.2077 12.4562 17.8032 12.8323C18.3986 13.2085 18.8627 13.7428 19.1367 14.3678C19.4108 14.9929 19.4825 15.6806 19.343 16.3441C19.2034 17.0076 18.8587 17.6172 18.3525 18.0959L12.4617 23.6634H15.7913C16.7525 23.6634 17.6744 24.024 18.3541 24.6659C19.0338 25.3078 19.4156 26.1783 19.4156 27.0861C19.4156 27.9938 19.0338 28.8644 18.3541 29.5062C17.6744 30.1481 16.7525 30.5087 15.7913 30.5087H3.71005C2.99369 30.5081 2.29357 30.3071 1.69814 29.9309C1.1027 29.5548 0.638647 29.0205 0.364591 28.3955C0.0905339 27.7704 0.0187649 27.0827 0.158348 26.4192C0.297931 25.7556 0.642606 25.146 1.14884 24.6674L7.04205 19.0999H3.71005ZM23.04 35.0723C22.0787 35.0723 21.1569 34.7117 20.4772 34.0698C19.7975 33.4279 19.4156 32.5573 19.4156 31.6496C19.4156 30.7419 19.7975 29.8713 20.4772 29.2294C21.1569 28.5875 22.0787 28.2269 23.04 28.2269H32.7049C33.4213 28.2275 34.1214 28.4286 34.7169 28.8047C35.3123 29.1809 35.7764 29.7152 36.0504 30.3402C36.3245 30.9653 36.3962 31.653 36.2566 32.3165C36.1171 32.98 35.7724 33.5896 35.2662 34.0683L31.7892 37.354H32.7049C33.6662 37.354 34.5881 37.7146 35.2677 38.3565C35.9475 38.9984 36.3293 39.8689 36.3293 40.7767C36.3293 41.6844 35.9475 42.555 35.2677 43.1969C34.5881 43.8387 33.6662 44.1993 32.7049 44.1993H23.04C22.3236 44.1987 21.6235 43.9977 21.0281 43.6216C20.4326 43.2454 19.9686 42.7111 19.6945 42.0861C19.4205 41.461 19.3487 40.7733 19.4883 40.1098C19.6279 39.4463 19.9725 38.8367 20.4788 38.358L23.9557 35.0723H23.04Z" fill="#7698A1"/>
</svg>
