<svg width="31" height="30" viewBox="0 0 31 30" fill="none" xmlns="http://www.w3.org/2000/svg">
<path d="M23.5265 20.9824C21.8505 21.3848 20.1009 21.3653 18.4343 20.9256C16.7677 20.4859 15.2361 19.6398 13.9768 18.4629C12.7174 17.2861 11.7696 15.8153 11.2182 14.1822C10.6667 12.5492 10.5289 10.8049 10.8171 9.10547C10.7739 9.1485 10.7276 9.18826 10.6785 9.22441C10.3352 9.48559 9.906 9.58246 9.04767 9.77619L8.26904 9.95277C5.25261 10.6358 3.7444 10.9766 3.38512 12.1305C3.02707 13.2831 4.05462 14.486 6.11094 16.8906L6.64311 17.5122C7.22678 18.1952 7.51984 18.5373 7.65104 18.9591C7.78224 19.3822 7.7381 19.8383 7.64981 20.7494L7.56888 21.5795C7.25866 24.7884 7.10293 26.3923 8.04219 27.1047C8.98146 27.8171 10.394 27.1685 13.2167 25.8675L13.9488 25.5315C14.7507 25.1612 15.1516 24.9773 15.5771 24.9773C16.0026 24.9773 16.4036 25.1612 17.2067 25.5315L17.9363 25.8675C20.7602 27.1673 22.1728 27.8171 23.1108 27.1059C24.0513 26.3923 23.8956 24.7884 23.5854 21.5795L23.5265 20.9824Z" fill="#4A4947"/>
<path opacity="0.5" d="M12.0862 7.05386L11.684 7.77486C11.2426 8.56698 11.0219 8.96304 10.6786 9.22421C10.7276 9.18743 10.7738 9.14778 10.8171 9.10527C10.5289 10.8048 10.6667 12.5492 11.2182 14.1824C11.7697 15.8156 12.7176 17.2865 13.9771 18.4634C15.2366 19.6402 16.7684 20.4864 18.4352 20.9259C20.102 21.3655 21.8517 21.3848 23.5278 20.9822L23.5033 20.7492C23.4162 19.8381 23.3721 19.382 23.5033 18.9589C23.6345 18.5371 23.9263 18.195 24.5112 17.512L25.0434 16.8904C27.0997 14.487 28.1273 13.2841 27.768 12.1303C27.4099 10.9764 25.9017 10.6343 22.8853 9.95257L22.1054 9.776C21.2483 9.58226 20.8192 9.48539 20.4746 9.22421C20.1313 8.96304 19.9106 8.56698 19.4691 7.77486L19.0682 7.05386C17.5146 4.26795 16.7384 2.875 15.5772 2.875C14.416 2.875 13.6398 4.26795 12.0862 7.05386Z" fill="#4A4947"/>
</svg>
