<svg width="31" height="30" viewBox="0 0 31 30" fill="none" xmlns="http://www.w3.org/2000/svg">
<g clip-path="url(#clip0_297_256)">
<path d="M22.9783 25.5362C23.8609 25.5362 24.7074 25.1856 25.3315 24.5615M22.9783 25.5362C22.0957 25.5362 21.2493 25.1856 20.6252 24.5615M22.9783 25.5362V28.0327M25.3315 24.5615C25.9556 23.9374 26.3062 23.0909 26.3062 22.2083M25.3315 24.5615L27.0971 26.3271M26.3062 22.2083C26.3062 21.3257 25.9556 20.4792 25.3315 19.8551M26.3062 22.2083H28.8027M25.3315 19.8551C24.7074 19.231 23.8609 18.8804 22.9783 18.8804M25.3315 19.8551L27.0971 18.0895M22.9783 18.8804C22.0957 18.8804 21.2493 19.231 20.6252 19.8551M22.9783 18.8804V16.3839M20.6252 19.8551C20.0011 20.4792 19.6505 21.3257 19.6505 22.2083M20.6252 19.8551L18.8608 18.0895M19.6505 22.2083C19.6505 23.0909 20.0011 23.9374 20.6252 24.5615M19.6505 22.2083H17.1539M20.6252 24.5615L18.8608 26.3271M22.4241 16.3839H23.5338M26.7047 17.6971L27.4895 18.4819M28.8027 21.6541V22.7625M27.4895 25.9347L26.7047 26.7195M23.5338 28.0327H22.4241M19.2532 26.7195L18.4684 25.9347M17.1539 22.7625V21.6541M18.4684 18.4819L19.2532 17.6971M20.526 13.625C19.8184 12.3978 18.7259 11.4382 17.4176 10.8949C16.1094 10.3515 14.6586 10.2548 13.2898 10.6196C11.921 10.9844 10.7107 11.7904 9.84648 12.9128C8.98223 14.0352 8.51223 15.4112 8.50929 16.8278V19.5867H11.2682L12.1879 28.7831H15.6273M4.58548 5.04163L2.81732 7.10531C2.62734 7.32741 2.52295 7.61007 2.52295 7.90234C2.52295 8.1946 2.62734 8.47726 2.81732 8.69936L3.90249 9.96111C4.09247 10.1832 4.19686 10.4659 4.19686 10.7581C4.19686 11.0504 4.09247 11.3331 3.90249 11.5552L2.81732 12.8194C2.62734 13.0415 2.52295 13.3241 2.52295 13.6164C2.52295 13.9086 2.62734 14.1913 2.81732 14.4134L3.90249 15.6788C4.09247 15.9009 4.19686 16.1836 4.19686 16.4759C4.19686 16.7681 4.09247 17.0508 3.90249 17.2729L2.81732 18.5444C2.62734 18.7665 2.52295 19.0492 2.52295 19.3415C2.52295 19.6337 2.62734 19.9164 2.81732 20.1385L4.58548 22.2009M24.8887 11.5625C24.6988 11.3404 24.5944 11.0578 24.5944 10.7655C24.5944 10.4732 24.6988 10.1906 24.8887 9.96847L25.9739 8.70304C26.1639 8.48094 26.2683 8.19828 26.2683 7.90601C26.2683 7.61375 26.1639 7.33109 25.9739 7.10899L24.2045 5.04163M14.9407 8.55099C15.9163 8.55099 16.8519 8.16343 17.5418 7.47356C18.2317 6.7837 18.6192 5.84804 18.6192 4.87242C18.6192 3.8968 18.2317 2.96114 17.5418 2.27128C16.8519 1.58141 15.9163 1.19385 14.9407 1.19385C13.965 1.19385 13.0294 1.58141 12.3395 2.27128C11.6497 2.96114 11.2621 3.8968 11.2621 4.87242C11.2621 5.84804 11.6497 6.7837 12.3395 7.47356C13.0294 8.16343 13.965 8.55099 14.9407 8.55099Z" stroke="#4A4947" stroke-width="1.83929" stroke-linecap="round" stroke-linejoin="round"/>
</g>
<defs>
<clipPath id="clip0_297_256">
<rect width="29.4286" height="29.4286" fill="white" transform="translate(0.948608 0.274414)"/>
</clipPath>
</defs>
</svg>
