<svg width="31" height="30" viewBox="0 0 31 30" fill="none" xmlns="http://www.w3.org/2000/svg">
<path d="M19.2329 16.0604V6.25084C19.2329 5.27522 18.8453 4.33956 18.1554 3.64969C17.4656 2.95983 16.5299 2.57227 15.5543 2.57227C14.5787 2.57227 13.643 2.95983 12.9531 3.64969C12.2633 4.33956 11.8757 5.27522 11.8757 6.25084V16.0604C10.8463 16.8324 10.0859 17.9088 9.70222 19.1371C9.31854 20.3653 9.33104 21.6832 9.73796 22.9039C10.1449 24.1246 10.9256 25.1864 11.9695 25.9388C13.0134 26.6912 14.2675 27.0961 15.5543 27.0961C16.8411 27.0961 18.0952 26.6912 19.1391 25.9388C20.183 25.1864 20.9637 24.1246 21.3706 22.9039C21.7775 21.6832 21.79 20.3653 21.4064 19.1371C21.0227 17.9088 20.2623 16.8324 19.2329 16.0604ZM15.5543 5.02465C15.8795 5.02465 16.1914 5.15383 16.4213 5.38379C16.6513 5.61374 16.7805 5.92563 16.7805 6.25084V9.92941H14.3281V6.25084C14.3281 5.92563 14.4573 5.61374 14.6872 5.38379C14.9172 5.15383 15.2291 5.02465 15.5543 5.02465Z" fill="#4A4947"/>
</svg>
