<svg 
          width="3.784757614135742" 
          height="4.251745700836182" fill="none" 
          xmlns="http://www.w3.org/2000/svg">
          <path d="M 3.784757614135742 2.125872850418091 C 3.784757614135742 2.405046375619924 3.735807988082431 2.6814867596016216 3.6407071777197166 2.9394094720902055 C 3.5456063673570024 3.1973321845787894 3.4062119863890996 3.431686827163449 3.230488595717483 3.6290923132548265 C 3.0547652050458667 3.826497799346204 2.8461542236319066 3.983086871706707 2.6165605504690905 4.089921959620085 C 2.3869668773062744 4.196757047533463 2.1408892073708667 4.251745700836187 1.892378807067871 4.251745700836182 C 1.3904894070994493 4.251745700836171 0.9091584079683451 4.027770710876761 0.554269018418259 3.6290923132548265 C 0.19937962886817295 3.2304139156328917 0 2.6896892333174627 2.3384595314180936e-14 2.125872850418091 C 0 1.562056467518719 0.19937962886817295 1.02133178520329 0.554269018418259 0.622653387581355 C 0.9091584079683451 0.22397498995942022 1.3904894070994493 1.0693968871303747e-14 1.892378807067871 5.3469844356518736e-15 C 2.1408892073708667 -5.3469844356518736e-15 2.3869668773062744 0.054988653302718266 2.6165605504690905 0.16182374121609627 C 2.8461542236319066 0.26865882912947425 3.0547652050458667 0.4252479014899774 3.230488595717483 0.622653387581355 C 3.4062119863890996 0.8200588736727327 3.5456063673570024 1.0544135162573918 3.6407071777197166 1.3123362287459757 C 3.735807988082431 1.5702589412345596 3.7847576141357187 1.8466993252162578 3.784757614135742 2.125872850418091 Z" fill="rgb(131.62905603647232,111.62964999675751,143.78060638904572)"/>
        </svg>