<svg 
          width="4.17645263671875" 
          height="6.676811218261719" fill="none" 
          xmlns="http://www.w3.org/2000/svg">
          <path d="M 4.17645263671875 3.3384047657530567 C 4.17645263671875 3.7768103638696355 4.122439436654406 4.210922879060164 4.017496131884896 4.615956834552466 C 3.9125528271153867 5.020990790044768 3.758732352169558 5.3890145865837376 3.5648224086993077 5.699014174796823 C 3.370912465229057 6.009013763009909 3.140716525497422 6.254917428896613 2.8873609762985435 6.422687992311455 C 2.634005427099665 6.590458555726297 2.3624563841704105 6.676811218261719 2.088226318359375 6.676811218261719 C 1.5343936977956105 6.6768112182617125 1.0032490031535108 6.3250865674901995 0.6116302280194426 5.699014174796823 C 0.22001145288537421 5.072941782103447 0 4.223804816105061 0 3.3384047657530567 C 0 2.4530047154010526 0.22001145288537421 1.6038677494026667 0.6116302280194426 0.97779535670929 C 1.0032490031535108 0.3517229640159133 1.5343936977956105 6.283654291483766e-15 2.088226318359375 0 C 2.6420589389231397 0 3.1732036335652394 0.3517229640159133 3.5648224086993077 0.97779535670929 C 3.956441183833376 1.6038677494026667 4.17645263671875 2.4530047154010526 4.17645263671875 3.3384047657530567 Z" fill="rgb(131.62905603647232,111.62964999675751,143.78060638904572)"/>
        </svg>