<svg 
          width="5.9223761558532715" 
          height="10.214007377624512" fill="none" 
          xmlns="http://www.w3.org/2000/svg">
          <path d="M 5.9223761558532715 5.107003688812256 C 5.92237615585329 6.461465272936969 5.610397988335187 7.760452035552923 5.055067162869706 8.718201060719407 C 4.499736337404226 9.67595008588589 3.7465444289176877 10.2140073776245 2.9611880779266357 10.214007377624512 C 2.5723190764774944 10.214007377624519 2.1872568571529367 10.081911514988551 1.827988736729131 9.825260550064396 C 1.468720616305325 9.56860958514024 1.1422808895825403 9.192430222489829 0.8673089929835651 8.718201060719407 C 0.59233709638459 8.243971898948985 0.37422102666155177 7.680978985728977 0.22540730321992217 7.061368759109852 C 0.07659357977829254 6.441758532490727 1.839608377267754e-14 5.777664990157776 0 5.107003688812256 C 1.839608377267754e-14 4.436342387466736 0.07659357977829254 3.772248845133784 0.22540730321992217 3.1526386185146595 C 0.37422102666155177 2.533028391895535 0.59233709638459 1.970035478675527 0.8673089929835651 1.4958063169051052 C 1.1422808895825403 1.0215771551346835 1.468720616305325 0.6453977924842699 1.827988736729131 0.38874682756011475 C 2.1872568571529367 0.13209586263595963 2.5723190764774944 -6.451101106818815e-15 2.9611880779266357 0 C 3.7465444289176877 9.676651660228223e-15 4.499736337404226 0.5380572917386215 5.055067162869706 1.4958063169051052 C 5.610397988335187 2.453555342071589 5.9223761558532715 3.752542104687543 5.9223761558532715 5.107003688812256 Z" fill="rgb(131.62905603647232,111.62964999675751,143.78060638904572)"/>
        </svg>