<svg 
          width="3.810528039932251" 
          height="5.740976333618164" fill="none" 
          xmlns="http://www.w3.org/2000/svg">
          <path d="M 3.810528039932251 2.870488166809082 C 3.810528039932271 3.631788779111088 3.6098020322674116 4.361909716123855 3.252495334665903 4.900230550656196 C 2.8951886370643947 5.4385513851885365 2.4105720389234073 5.740976333618164 1.9052640199661255 5.740976333618164 C 1.6550608831153812 5.740976368521672 1.4073052120111296 5.666728277211757 1.1761476568065004 5.522472796700948 C 0.9449901016018711 5.37821731619014 0.7349530449992678 5.166779964643661 0.5580327052663476 4.900230550656196 C 0.3811123655334275 4.633681136668731 0.2407750867729066 4.317240110224685 0.14502648298600002 3.9689765052472294 C 0.04927787919909342 3.620712900269773 0 3.2474459730482454 0 2.870488166809082 C 0 2.4935303605699186 0.04927787919909342 2.1202634333483914 0.14502648298600002 1.771999828370935 C 0.2407750867729066 1.4237362233934787 0.3811123655334275 1.1072951969494336 0.5580327052663476 0.8407457829619687 C 0.7349530449992678 0.5741963689745038 0.9449901016018711 0.3627590174280243 1.1761476568065004 0.2185035369172157 C 1.4073052120111296 0.07424805640640708 1.6550608831153812 -3.490350175771035e-8 1.9052640199661255 6.134147509814152e-15 C 2.4105720389234073 6.134147509814152e-15 2.8951886370643947 0.3024249484296282 3.252495334665903 0.8407457829619687 C 3.6098020322674116 1.3790666174943091 3.810528039932271 2.109187554507076 3.810528039932251 2.870488166809082 Z" fill="rgb(131.62905603647232,111.62964999675751,143.78060638904572)"/>
        </svg>