<svg 
          width="3.810528039932251" 
          height="5.740976333618164" fill="none" 
          xmlns="http://www.w3.org/2000/svg">
          <path d="M 3.810528039932251 2.870488166809082 C 3.810528039932251 3.2474459473197657 3.7612501502180913 3.6207129259982525 3.665501556946251 3.9689765052472294 C 3.5697529636744103 4.317240084496206 3.4294156533686913 4.633681136668731 3.252495334665903 4.900230550656196 C 3.075575015963115 5.166779964643661 2.8655379173002475 5.37821729046166 2.6343803831257504 5.522472796700948 C 2.4032228489512533 5.666728302940236 2.1554671357867377 5.740976333618164 1.9052640199661255 5.740976333618164 C 1.6550608831153812 5.740976368521659 1.4073052120111296 5.666728277211757 1.1761476568065004 5.522472796700948 C 0.9449901016018711 5.37821731619014 0.7349530449992678 5.166779964643661 0.5580327052663476 4.900230550656196 C 0.3811123655334275 4.633681136668731 0.2407750867729066 4.317240110224685 0.14502648298600002 3.9689765052472294 C 0.04927787919909342 3.620712900269773 0 3.2474459730482454 0 2.870488166809082 C 0 2.4935303605699186 0.04927787919909342 2.1202634333483914 0.14502648298600002 1.771999828370935 C 0.2407750867729066 1.4237362233934787 0.3811123655334275 1.1072968435721176 0.5580327052663476 0.8407474295846527 C 0.7349530449992678 0.5741980155971877 0.9449901016018711 0.3627590174280243 1.1761476568065004 0.2185035369172157 C 1.4073052120111296 0.07424805640640708 1.6550608831153812 -3.4903486422341574e-8 1.9052640199661255 1.2268295019628303e-14 C 2.1554671357867377 9.201221264721227e-15 2.4032228489512533 0.07424803067792762 2.6343803831257504 0.2185035369172157 C 2.8655379173002475 0.36275904315650376 3.075575015963115 0.5741980155971877 3.252495334665903 0.8407474295846527 C 3.4294156533686913 1.1072968435721176 3.5697529636744103 1.4237362491219583 3.665501556946251 1.771999828370935 C 3.7612501502180913 2.1202634076199116 3.810528039932271 2.4935303862983984 3.810528039932251 2.870488166809082 Z" fill="rgb(131.62905603647232,111.62964999675751,143.78060638904572)"/>
        </svg>