<svg width="30" height="31" viewBox="0 0 30 31" fill="none" xmlns="http://www.w3.org/2000/svg">
<path d="M14.7143 3.50684C12.1235 3.50684 10.0011 5.62926 10.0011 8.22001C10.0011 9.70362 10.6979 11.0327 11.7794 11.8986H7.35715L1.83929 28.4521H27.5893L22.0714 11.8986H17.6492C18.7307 11.0327 19.4275 9.70362 19.4275 8.22001C19.4275 5.62926 17.305 3.50684 14.7143 3.50684ZM14.7143 5.57603C16.1868 5.57603 17.3583 6.74754 17.3583 8.22001C17.3583 9.69247 16.1868 10.864 14.7143 10.864C13.2418 10.864 12.0703 9.69247 12.0703 8.22001C12.0703 6.74754 13.2418 5.57603 14.7143 5.57603ZM9.98877 17.2411H11.3395V19.153L13.2864 17.2411H14.8546L12.3323 19.7212L15.1142 22.4787H13.4233L11.3395 20.4159V22.4787H9.98877V17.2411ZM16.8823 18.462C17.1559 18.4619 17.3968 18.5157 17.605 18.6232C17.8131 18.7308 18.0037 18.9004 18.1769 19.1319V18.5497H19.4398V22.0824C19.4398 22.7138 19.2398 23.1956 18.8398 23.5277C18.4422 23.8621 17.8645 24.0293 17.1067 24.0293C16.8613 24.0293 16.6239 24.0106 16.3946 23.9732C16.16 23.9345 15.9289 23.877 15.7035 23.8013V22.8225C15.9234 22.9488 16.1386 23.0424 16.349 23.1032C16.5596 23.1664 16.7713 23.1979 16.9841 23.1979C17.3957 23.1979 17.6974 23.1079 17.8891 22.9278C18.081 22.7478 18.1769 22.466 18.1769 22.0824V21.8123C18.0038 22.0414 17.8132 22.2098 17.605 22.3174C17.3968 22.4249 17.1559 22.4787 16.8823 22.4788C16.4028 22.4788 16.0064 22.2905 15.6931 21.914C15.3796 21.5351 15.2229 21.0533 15.2229 20.4687C15.2229 19.8816 15.3796 19.401 15.6931 19.0268C16.0064 18.6503 16.4028 18.462 16.8823 18.462ZM17.3489 19.367C17.0893 19.367 16.8869 19.4629 16.7419 19.6547C16.5969 19.8465 16.5244 20.1179 16.5244 20.4687C16.5244 20.8288 16.5946 21.1024 16.7349 21.2895C16.8753 21.4743 17.0799 21.5667 17.3489 21.5667C17.6108 21.5666 17.8143 21.4707 17.9593 21.2789C18.1043 21.0872 18.1768 20.817 18.1768 20.4686C18.1768 20.1178 18.1043 19.8465 17.9593 19.6547C17.8143 19.4629 17.6108 19.367 17.3488 19.367H17.3489Z" fill="#4A4947"/>
</svg>
