<svg width="50" height="70" viewBox="0 0 50 70" fill="none" xmlns="http://www.w3.org/2000/svg">
<g id="footprint 3" clip-path="url(#clip0_429_640)" filter="url(#filter0_ii_429_640)">
<g id="Group">
<g id="Group_2">
<path id="Vector" d="M4.71217 21.8126C3.66038 28.8716 5.40796 41.5143 13.709 49.05C20.7964 55.4961 26.2819 44.4877 21.4922 37.0428C19.8903 34.5688 17.722 33.7289 20.2139 25.1265C22.7058 16.524 18.7414 11.3716 13.6119 11.644C8.48243 11.9391 5.48887 16.6375 4.71217 21.8126Z" fill="#847090"/>
<path id="Vector_2" d="M19.2754 5.107C19.2754 6.46147 18.9634 7.76045 18.4081 8.7182C17.8528 9.67595 17.0996 10.214 16.3142 10.214C15.9253 10.214 15.5403 10.0819 15.181 9.82526C14.8217 9.56861 14.4953 9.19243 14.2203 8.7182C13.9454 8.24397 13.7272 7.68098 13.5784 7.06137C13.4296 6.44176 13.353 5.77767 13.353 5.107C13.353 4.43634 13.4296 3.77225 13.5784 3.15264C13.7272 2.53303 13.9454 1.97004 14.2203 1.49581C14.4953 1.02158 14.8217 0.645398 15.181 0.388747C15.5403 0.132096 15.9253 0 16.3142 0C17.0996 0 17.8528 0.538057 18.4081 1.49581C18.9634 2.45356 19.2754 3.75254 19.2754 5.107Z" fill="#847090"/>
<path id="Vector_3" d="M12.4239 5.88938C12.5274 6.31539 12.5813 6.76054 12.5823 7.19941C12.5833 7.63828 12.5315 8.06228 12.4298 8.4472C12.3281 8.83212 12.1786 9.17041 11.9896 9.44277C11.8007 9.71514 11.5762 9.91624 11.3288 10.0346C10.8291 10.2736 10.2669 10.161 9.76569 9.72169C9.26449 9.28233 8.8654 8.55215 8.65622 7.69179C8.44703 6.83142 8.4449 5.91135 8.65027 5.13397C8.85564 4.3566 9.2517 3.7856 9.75132 3.54658C10.2509 3.30757 10.8132 3.42012 11.3144 3.85948C11.8156 4.29884 12.2147 5.02902 12.4239 5.88938Z" fill="#847090"/>
<path id="Vector_4" d="M8.40449 9.08649C8.52927 9.44221 8.61227 9.82244 8.64874 10.2055C8.68522 10.5885 8.67446 10.9668 8.61708 11.3189C8.5597 11.6709 8.45681 11.9897 8.31431 12.2572C8.17181 12.5246 7.99248 12.7354 7.78655 12.8775C7.58062 13.0197 7.35213 13.0903 7.11413 13.0855C6.87613 13.0807 6.63327 13.0005 6.39943 12.8494C6.16558 12.6984 5.94534 12.4795 5.75125 12.2053C5.55717 11.931 5.39305 11.6068 5.26828 11.251C5.1435 10.8953 5.0605 10.5151 5.02403 10.1321C4.98755 9.74902 4.99831 9.37069 5.05569 9.01866C5.11308 8.66663 5.21596 8.34779 5.35846 8.08036C5.50096 7.81292 5.6803 7.60212 5.88622 7.45999C6.09215 7.31787 6.32064 7.24719 6.55864 7.25202C6.79664 7.25684 7.0395 7.33705 7.27335 7.48809C7.50719 7.63912 7.72744 7.85802 7.92152 8.13227C8.1156 8.40652 8.27972 8.73077 8.40449 9.08649Z" fill="#847090"/>
<path id="Vector_5" d="M5.29374 13.2774C5.62836 13.8344 5.82021 14.5211 5.82709 15.1865C5.83397 15.852 5.65531 16.4415 5.33042 16.8256C5.00553 17.2096 4.56101 17.3567 4.09466 17.2344C3.62831 17.112 3.17833 16.7304 2.8437 16.1734C2.50908 15.6164 2.31723 14.9297 2.31035 14.2642C2.30347 13.5988 2.48212 13.0092 2.80702 12.6252C3.13191 12.2411 3.57643 12.0941 4.04278 12.2164C4.50913 12.3387 4.95911 12.7204 5.29374 13.2774Z" fill="#847090"/>
<path id="Vector_6" d="M3.25383 18.2436C3.4454 18.4467 3.61188 18.6909 3.74376 18.9622C3.87564 19.2335 3.97034 19.5267 4.02246 19.825C4.07458 20.1233 4.08309 20.4209 4.0475 20.7007C4.01192 20.9805 3.93294 21.2372 3.81508 21.4559C3.57704 21.8978 3.19506 22.1586 2.75316 22.181C2.31127 22.2035 1.84566 21.9857 1.45877 21.5756C1.07188 21.1654 0.795401 20.5966 0.690147 19.9942C0.584893 19.3917 0.659491 18.8051 0.89753 18.3632C1.0154 18.1445 1.16984 17.9678 1.35204 17.8434C1.53425 17.719 1.74064 17.6492 1.95944 17.6381C2.17824 17.627 2.40517 17.6748 2.62726 17.7787C2.84935 17.8826 3.06226 18.0406 3.25383 18.2436Z" fill="#847090"/>
</g>
<g id="Group_3">
<path id="Vector_7" d="M45.2789 36.3165C46.3307 43.3755 44.5831 56.0182 36.282 63.5538C29.1946 70 23.7091 58.9916 28.4988 51.5467C30.1007 49.0726 32.269 48.2328 29.7771 39.6304C27.2852 31.0279 31.2496 25.8755 36.3791 26.1479C41.5086 26.4429 44.5183 31.1414 45.2789 36.3165Z" fill="#847090"/>
<path id="Vector_8" d="M36.638 19.6109C36.638 20.9654 36.326 22.2644 35.7707 23.2221C35.2153 24.1799 34.4622 24.7179 33.6768 24.7179C32.8914 24.7179 32.1382 24.1799 31.5829 23.2221C31.0276 22.2644 30.7156 20.9654 30.7156 19.6109C30.7156 18.2564 31.0276 16.9575 31.5829 15.9997C32.1382 15.042 32.8914 14.5039 33.6768 14.5039C34.4622 14.5039 35.2153 15.042 35.7707 15.9997C36.326 16.9575 36.638 18.2564 36.638 19.6109Z" fill="#847090"/>
<path id="Vector_9" d="M37.561 20.4071C37.7702 19.5467 38.1693 18.8165 38.6705 18.3772C39.1717 17.9378 39.734 17.8253 40.2336 18.0643C40.7332 18.3033 41.1293 18.8743 41.3346 19.6517C41.54 20.4291 41.5379 21.3491 41.3287 22.2095C41.1195 23.0698 40.7204 23.8 40.2192 24.2394C39.718 24.6787 39.1557 24.7913 38.6561 24.5523C38.1565 24.3133 37.7604 23.7423 37.5551 22.9649C37.3497 22.1875 37.3518 21.2674 37.561 20.4071Z" fill="#847090"/>
<path id="Vector_10" d="M41.5879 23.5899C41.8399 22.8715 42.2468 22.2966 42.7191 21.9915C43.1913 21.6865 43.6903 21.6764 44.1062 21.9634C44.3121 22.1056 44.4915 22.3164 44.634 22.5838C44.7765 22.8512 44.8794 23.1701 44.9367 23.5221C44.9941 23.8741 45.0049 24.2525 44.9684 24.6355C44.9319 25.0185 44.8489 25.3988 44.7241 25.7545C44.5994 26.1102 44.4353 26.4344 44.2412 26.7087C44.0471 26.983 43.8268 27.2019 43.593 27.3529C43.3592 27.5039 43.1163 27.5841 42.8783 27.589C42.6403 27.5938 42.4118 27.5231 42.2059 27.381C41.79 27.0939 41.4912 26.5333 41.3753 25.8223C41.2595 25.1114 41.3359 24.3083 41.5879 23.5899Z" fill="#847090"/>
<path id="Vector_11" d="M44.7136 27.7809C45.0482 27.2238 45.4982 26.8422 45.9646 26.7199C46.4309 26.5976 46.8754 26.7446 47.2003 27.1287C47.5252 27.5127 47.7039 28.1023 47.697 28.7677C47.6901 29.4331 47.4983 30.1199 47.1636 30.6769C46.829 31.2339 46.379 31.6155 45.9127 31.7378C45.4463 31.8602 45.0018 31.7131 44.6769 31.3291C44.352 30.945 44.1734 30.3555 44.1803 29.69C44.1871 29.0246 44.379 28.3379 44.7136 27.7809Z" fill="#847090"/>
<path id="Vector_12" d="M46.7462 32.7377C46.9377 32.5346 47.1507 32.3766 47.3727 32.2727C47.5948 32.1688 47.8218 32.1211 48.0406 32.1322C48.2594 32.1433 48.4658 32.2131 48.648 32.3375C48.8302 32.4619 48.9846 32.6385 49.1025 32.8573C49.3405 33.2991 49.4151 33.8858 49.3099 34.4882C49.2046 35.0907 48.9281 35.6595 48.5412 36.0696C48.1543 36.4797 47.6887 36.6975 47.2468 36.6751C46.8049 36.6527 46.423 36.3918 46.1849 35.95C46.0671 35.7312 45.9881 35.4746 45.9525 35.1948C45.9169 34.9149 45.9254 34.6174 45.9775 34.3191C46.0297 34.0208 46.1244 33.7276 46.2562 33.4563C46.3881 33.1849 46.5546 32.9408 46.7462 32.7377Z" fill="#847090"/>
</g>
</g>
</g>
<defs>
<filter id="filter0_ii_429_640" x="-4" y="-4" width="58" height="78" filterUnits="userSpaceOnUse" color-interpolation-filters="sRGB">
<feFlood flood-opacity="0" result="BackgroundImageFix"/>
<feBlend mode="normal" in="SourceGraphic" in2="BackgroundImageFix" result="shape"/>
<feColorMatrix in="SourceAlpha" type="matrix" values="0 0 0 0 0 0 0 0 0 0 0 0 0 0 0 0 0 0 127 0" result="hardAlpha"/>
<feOffset dy="4"/>
<feGaussianBlur stdDeviation="2"/>
<feComposite in2="hardAlpha" operator="arithmetic" k2="-1" k3="1"/>
<feColorMatrix type="matrix" values="0 0 0 0 0 0 0 0 0 0 0 0 0 0 0 0 0 0 0.25 0"/>
<feBlend mode="normal" in2="shape" result="effect1_innerShadow_429_640"/>
<feColorMatrix in="SourceAlpha" type="matrix" values="0 0 0 0 0 0 0 0 0 0 0 0 0 0 0 0 0 0 127 0" result="hardAlpha"/>
<feOffset dy="4"/>
<feGaussianBlur stdDeviation="2"/>
<feComposite in2="hardAlpha" operator="arithmetic" k2="-1" k3="1"/>
<feColorMatrix type="matrix" values="0 0 0 0 0 0 0 0 0 0 0 0 0 0 0 0 0 0 0.25 0"/>
<feBlend mode="normal" in2="effect1_innerShadow_429_640" result="effect2_innerShadow_429_640"/>
</filter>
<clipPath id="clip0_429_640">
<rect width="50" height="70" fill="white"/>
</clipPath>
</defs>
</svg>
