<svg 
          width="18.01801872253418" 
          height="21.126760482788086" fill="none" 
          xmlns="http://www.w3.org/2000/svg">
          <path d="M 16.73101738521031 8.29979876109532 L 10.939511367252894 8.29979876109532 L 10.939511367252894 1.509054320199149 C 10.939511367252894 0.6757733841663156 10.363176083951 0 9.652510029929026 0 L 8.365508692605156 0 C 7.6548426385831805 0 7.078507355281285 0.6757733841663156 7.078507355281285 1.509054320199149 L 7.078507355281285 8.29979876109532 L 1.28700133732387 8.29979876109532 C 0.5763352833018952 8.29979876109532 0 8.975572145261635 0 9.808853081294469 L 0 11.317907401493619 C 0 12.151188337526452 0.5763352833018952 12.826961721692767 1.28700133732387 12.826961721692767 L 7.078507355281285 12.826961721692767 L 7.078507355281285 19.617706162588938 C 7.078507355281285 20.45098709862177 7.6548426385831805 21.126760482788086 8.365508692605156 21.126760482788086 L 9.652510029929026 21.126760482788086 C 10.363176083951 21.126760482788086 10.939511367252894 20.45098709862177 10.939511367252894 19.617706162588938 L 10.939511367252894 12.826961721692767 L 16.73101738521031 12.826961721692767 C 17.441683439232285 12.826961721692767 18.01801872253418 12.151188337526452 18.01801872253418 11.317907401493619 L 18.01801872253418 9.808853081294469 C 18.01801872253418 8.975572145261635 17.441683439232285 8.29979876109532 16.73101738521031 8.29979876109532 Z" fill="rgb(74.0000031888485,73.00000324845314,71.00000336766243)"/>
        </svg>