<svg 
          width="21.07728385925293" 
          height="17.85714340209961" fill="none" 
          xmlns="http://www.w3.org/2000/svg">
          <path d="M 0 16.18303620815277 C 0 17.107282888144255 1.0115214352096829 17.85714340209961 2.258280413491385 17.85714340209961 L 18.819003445761545 17.85714340209961 C 20.065762424043246 17.85714340209961 21.07728385925293 17.107282888144255 21.07728385925293 16.18303620815277 L 21.07728385925293 6.6964287757873535 L 0 6.6964287757873535 L 0 16.18303620815277 Z M 15.055202756609237 9.347098499536514 C 15.055202756609237 9.116908763694976 15.309259307613818 8.928571701049805 15.619772859982083 8.928571701049805 L 17.501673204558237 8.928571701049805 C 17.812186756926504 8.928571701049805 18.06624330793108 9.116908763694976 18.06624330793108 9.347098499536514 L 18.06624330793108 10.742187827825546 C 18.06624330793108 10.972377563667084 17.812186756926504 11.160714626312256 17.501673204558237 11.160714626312256 L 15.619772859982083 11.160714626312256 C 15.309259307613818 11.160714626312256 15.055202756609237 10.972377563667084 15.055202756609237 10.742187827825546 L 15.055202756609237 9.347098499536514 Z M 15.055202756609237 13.811384350061417 C 15.055202756609237 13.581194614219879 15.309259307613818 13.392857551574707 15.619772859982083 13.392857551574707 L 17.501673204558237 13.392857551574707 C 17.812186756926504 13.392857551574707 18.06624330793108 13.581194614219879 18.06624330793108 13.811384350061417 L 18.06624330793108 15.206473678350449 C 18.06624330793108 15.436663414191987 17.812186756926504 15.625000476837158 17.501673204558237 15.625000476837158 L 15.619772859982083 15.625000476837158 C 15.309259307613818 15.625000476837158 15.055202756609237 15.436663414191987 15.055202756609237 15.206473678350449 L 15.055202756609237 13.811384350061417 Z M 9.03312165396554 9.347098499536514 C 9.03312165396554 9.116908763694976 9.287178204970123 8.928571701049805 9.597691757338389 8.928571701049805 L 11.479592101914543 8.928571701049805 C 11.790105654282808 8.928571701049805 12.044162205287389 9.116908763694976 12.044162205287389 9.347098499536514 L 12.044162205287389 10.742187827825546 C 12.044162205287389 10.972377563667084 11.790105654282808 11.160714626312256 11.479592101914543 11.160714626312256 L 9.597691757338389 11.160714626312256 C 9.287178204970123 11.160714626312256 9.03312165396554 10.972377563667084 9.03312165396554 10.742187827825546 L 9.03312165396554 9.347098499536514 Z M 9.03312165396554 13.811384350061417 C 9.03312165396554 13.581194614219879 9.287178204970123 13.392857551574707 9.597691757338389 13.392857551574707 L 11.479592101914543 13.392857551574707 C 11.790105654282808 13.392857551574707 12.044162205287389 13.581194614219879 12.044162205287389 13.811384350061417 L 12.044162205287389 15.206473678350449 C 12.044162205287389 15.436663414191987 11.790105654282808 15.625000476837158 11.479592101914543 15.625000476837158 L 9.597691757338389 15.625000476837158 C 9.287178204970123 15.625000476837158 9.03312165396554 15.436663414191987 9.03312165396554 15.206473678350449 L 9.03312165396554 13.811384350061417 Z M 3.0110405513218472 9.347098499536514 C 3.0110405513218472 9.116908763694976 3.265097102326428 8.928571701049805 3.5756106546946937 8.928571701049805 L 5.457510999270848 8.928571701049805 C 5.7680245516391135 8.928571701049805 6.0220811026436945 9.116908763694976 6.0220811026436945 9.347098499536514 L 6.0220811026436945 10.742187827825546 C 6.0220811026436945 10.972377563667084 5.7680245516391135 11.160714626312256 5.457510999270848 11.160714626312256 L 3.5756106546946937 11.160714626312256 C 3.265097102326428 11.160714626312256 3.0110405513218472 10.972377563667084 3.0110405513218472 10.742187827825546 L 3.0110405513218472 9.347098499536514 Z M 3.0110405513218472 13.811384350061417 C 3.0110405513218472 13.581194614219879 3.265097102326428 13.392857551574707 3.5756106546946937 13.392857551574707 L 5.457510999270848 13.392857551574707 C 5.7680245516391135 13.392857551574707 6.0220811026436945 13.581194614219879 6.0220811026436945 13.811384350061417 L 6.0220811026436945 15.206473678350449 C 6.0220811026436945 15.436663414191987 5.7680245516391135 15.625000476837158 5.457510999270848 15.625000476837158 L 3.5756106546946937 15.625000476837158 C 3.265097102326428 15.625000476837158 3.0110405513218472 15.436663414191987 3.0110405513218472 15.206473678350449 L 3.0110405513218472 13.811384350061417 Z M 18.819003445761545 2.232142925262451 L 16.56072303227016 2.232142925262451 L 16.56072303227016 0.5580357313156128 C 16.56072303227016 0.25111607243972145 16.221980979220053 0 15.807962894439697 0 L 14.302442618778775 0 C 13.888424533998421 0 13.549682480948313 0.25111607243972145 13.549682480948313 0.5580357313156128 L 13.549682480948313 2.232142925262451 L 7.5276013783046185 2.232142925262451 L 7.5276013783046185 0.5580357313156128 C 7.5276013783046185 0.25111607243972145 7.18885932525451 0 6.7748412404741565 0 L 5.269320964813232 0 C 4.855302880032879 0 4.51656082698277 0.25111607243972145 4.51656082698277 0.5580357313156128 L 4.51656082698277 2.232142925262451 L 2.258280413491385 2.232142925262451 C 1.0115214352096829 2.232142925262451 0 2.982003439217806 0 3.9062501192092896 L 0 5.580357313156128 L 21.07728385925293 5.580357313156128 L 21.07728385925293 3.9062501192092896 C 21.07728385925293 2.982003439217806 20.065762424043246 2.232142925262451 18.819003445761545 2.232142925262451 Z" fill="rgb(74.0000031888485,73.00000324845314,71.00000336766243)"/>
        </svg>