<svg 
          width="2.4353528022766113" 
          height="4.034022331237793" fill="none" 
          xmlns="http://www.w3.org/2000/svg">
          <path d="M 2.4353528022766113 2.0170111656188965 C 2.435352802276624 2.551955658043895 2.3070664755172747 3.0649910710565655 2.078707608148461 3.4432539555693484 C 1.850348740779647 3.8215168400821313 1.5406246348435584 4.034022331237793 1.2176764011383057 4.034022331237793 C 1.0577686654957956 4.034022355763504 0.8994251336858605 3.9818503137639496 0.7516896508510424 3.8804860516651214 C 0.6039541680162244 3.779121789566293 0.4697170415553531 3.63055071938062 0.3566451941281504 3.4432539555693484 C 0.24357334670094768 3.255957191758077 0.15388215915115472 3.033602997451449 0.0926881125248342 2.788887973735088 C 0.03149406589851368 2.544172950018727 0 2.2818887961707754 0 2.0170111656188965 C 0 1.7521335350670175 0.03149406589851368 1.4898493812190658 0.0926881125248342 1.245134357502705 C 0.15388215915115472 1.000419333786344 0.24357334670094768 0.7780651394797159 0.3566451941281504 0.5907683756684444 C 0.4697170415553531 0.40347161185717295 0.6039541680162244 0.25490054167149956 0.7516896508510424 0.15353627957267157 C 0.8994251336858605 0.05217201747384358 1.0577686654957956 -2.4525707361741213e-8 1.2176764011383057 4.3102926400850775e-15 C 1.5406246348435584 4.3102926400850775e-15 1.850348740779647 0.2125054911556617 2.078707608148461 0.5907683756684444 C 2.3070664755172747 0.9690312601812272 2.435352802276624 1.482066673193898 2.4353528022766113 2.0170111656188965 Z" fill="rgb(131.62905603647232,111.62964999675751,143.78060638904572)"/>
        </svg>