<svg 
          width="3.5534257888793945" 
          height="7.295719623565674" fill="none" 
          xmlns="http://www.w3.org/2000/svg">
          <path d="M 3.5534257888793945 3.647859811782837 C 3.5534257888794056 4.615332380905137 3.3662388833447903 5.543180077151207 3.033040379123065 6.227286530086147 C 2.69984187490134 6.911392983021087 2.2479267176808433 7.295719623565665 1.7767128944396973 7.295719623565674 C 1.5433914873082937 7.295719623565678 1.3123541495129407 7.201365435087582 1.0967932714733986 7.018043315572949 C 0.8812323934338564 6.834721196058315 0.6853685521435592 6.566021648799193 0.5203854097563291 6.227286530086147 C 0.35540226736909897 5.888551411373101 0.22453262202297491 5.486413612461221 0.1352443855616646 5.043834875029521 C 0.045956149100354296 4.601256137597821 1.1037650559836824e-14 4.126903602931005 0 3.647859811782837 C 1.1037650559836824e-14 3.1688160206346687 0.045956149100354296 2.694463485967852 0.1352443855616646 2.251884748536152 C 0.22453262202297491 1.8093060111044525 0.35540226736909897 1.4071682121925733 0.5203854097563291 1.0684330934795272 C 0.6853685521435592 0.7296979747664812 0.8812323934338564 0.46099842750735814 1.0967932714733986 0.27767630799272514 C 1.3123541495129407 0.09435418847809213 1.5433914873082937 -4.607929405037335e-15 1.7767128944396973 0 C 2.2479267176808433 6.911894107556003e-15 2.69984187490134 0.38432664054458743 3.033040379123065 1.0684330934795272 C 3.3662388833447903 1.752539546414467 3.5534257888793945 2.6803872426605366 3.5534257888793945 3.647859811782837 Z" fill="rgb(131.62905603647232,111.62964999675751,143.78060638904572)"/>
        </svg>